<svg xmlns="http://www.w3.org/2000/svg" version="1.1" xmlns:xlink="http://www.w3.org/1999/xlink" xmlns:svgjs="http://svgjs.dev/svgjs" width="2000" height="297" viewBox="0 0 2000 297"><g transform="matrix(1,0,0,1,-1.2121212121212466,0.4855854048327046)"><svg viewBox="0 0 396 59" data-background-color="#ffffff" preserveAspectRatio="xMidYMid meet" height="297" width="2000" xmlns="http://www.w3.org/2000/svg" xmlns:xlink="http://www.w3.org/1999/xlink"><g id="tight-bounds" transform="matrix(1,0,0,1,0.2400000000000091,-0.0964630938893265)"><svg viewBox="0 0 395.52 59.19292618777868" height="59.19292618777868" width="395.52"><g><svg viewBox="0 0 490.7402799585695 73.44344955743692" height="59.19292618777868" width="395.52"><g><rect width="3.5544685335045467" height="73.44344955743692" x="82.36091997610016" y="0" fill="#270206" opacity="1" stroke-width="0" stroke="transparent" fill-opacity="1" class="rect-qz-0" data-fill-palette-color="primary" rx="1%" id="qz-0" data-palette-color="#270206"></rect></g><g transform="matrix(1,0,0,1,95.22027995856949,0.18269514815282406)"><svg viewBox="0 0 395.52 73.07805926113127" height="73.07805926113127" width="395.52"><g id="textblocktransform"><svg viewBox="0 0 395.52 73.07805926113127" height="73.07805926113127" width="395.52" id="textblock"><g><svg viewBox="0 0 395.52 39.41481323372465" height="39.41481323372465" width="395.52"><g transform="matrix(1,0,0,1,0,0)"><svg width="395.52" viewBox="1.8 -36.65 374.77 37.35" height="39.41481323372465" data-palette-color="#270206"><path d="M46.85-4.15L53.3-4.15 53.3 0 35.85 0 35.85-4.15 41.8-4.15 41.8-20.95Q41.8-23.35 42.4-27.2L42.4-27.2 28.75 0.35 26.15 0.35 12.6-27Q13.05-23.05 13.05-20.95L13.05-20.95 13.05-4.15 19-4.15 19 0 1.8 0 1.8-4.15 8.2-4.15 8.2-30.15 1.8-30.15 1.8-34.3 13.9-34.3 27.65-6.85 41.15-34.3 53.25-34.3 53.25-30.15 46.85-30.15 46.85-4.15ZM63.7-28.9Q62.1-28.9 61-29.75 59.9-30.6 59.9-31.9L59.9-31.9Q59.9-33.25 61-34.13 62.1-35 63.7-35L63.7-35Q65.4-35 66.5-34.13 67.6-33.25 67.6-31.9L67.6-31.9Q67.6-30.6 66.5-29.75 65.4-28.9 63.7-28.9L63.7-28.9ZM66.7-3.95L72.05-3.95 72.05 0 56.5 0 56.5-3.95 61.8-3.95 61.8-19.6 56.5-19.6 56.5-23.55 66.7-23.55 66.7-3.95ZM103.8-3.95L108.5-3.95 108.5 0 94.6 0 94.6-3.95 98.95-3.95 98.95-13.7Q98.95-16.45 97.57-18.03 96.2-19.6 93.65-19.6L93.65-19.6Q89.3-19.6 84.45-14.1L84.45-14.1 84.45-3.95 88.8-3.95 88.8 0 74.25 0 74.25-3.95 79.55-3.95 79.55-19.6 74.25-19.6 74.25-23.55 84.45-23.55 84.45-18Q87.25-21.1 89.82-22.63 92.4-24.15 95.35-24.15L95.35-24.15Q99.4-24.15 101.6-21.55 103.8-18.95 103.8-13.85L103.8-13.85 103.8-3.95ZM139.34-4.05L140.39-0.45Q139.69-0.05 138.69 0.23 137.69 0.5 136.59 0.5L136.59 0.5Q134.74 0.5 133.39-0.48 132.04-1.45 131.54-3.3L131.54-3.3Q129.54-1.5 127.32-0.4 125.09 0.7 122.39 0.7L122.39 0.7Q119.34 0.7 116.72-0.85 114.09-2.4 112.54-5.18 110.99-7.95 110.99-11.45L110.99-11.45Q110.99-15.1 112.62-18.03 114.24-20.95 117.04-22.58 119.84-24.2 123.24-24.2L123.24-24.2Q127.59-24.2 131.24-21L131.24-21 131.24-30.35 125.94-30.35 125.94-34.3 136.04-34.3 136.04-6.05Q136.04-3.65 137.69-3.65L137.69-3.65Q138.79-3.65 139.34-4.05L139.34-4.05ZM116.09-11.5Q116.09-7.9 118.12-5.7 120.14-3.5 123.39-3.5L123.39-3.5Q127.14-3.5 131.24-6.9L131.24-6.9 131.24-17.25Q127.74-20.05 124.34-20.05L124.34-20.05Q121.99-20.05 120.09-18.95 118.19-17.85 117.14-15.9 116.09-13.95 116.09-11.5L116.09-11.5ZM158.14-32.5Q155.84-32.5 154.44-31.05 153.04-29.6 153.04-27.05L153.04-27.05 153.04-23.55 160.54-23.55 160.54-19.6 153.04-19.6 153.04-3.95 159.94-3.95 159.94 0 142.89 0 142.89-3.95 148.19-3.95 148.19-19.6 142.89-19.6 142.89-23.55 148.19-23.55 148.19-26.9Q148.19-31.55 150.77-34.1 153.34-36.65 157.64-36.65L157.64-36.65Q159.84-36.65 161.67-36.08 163.49-35.5 165.89-34.4L165.89-34.4 164.09-30.6Q162.54-31.5 161.12-32 159.69-32.5 158.14-32.5L158.14-32.5ZM194.09-4L195.19-0.45Q193.49 0.5 191.44 0.5L191.44 0.5Q189.09 0.5 187.64-0.9 186.19-2.3 185.99-4.9L185.99-4.9Q183.49-2.15 181.09-0.75 178.69 0.65 176.04 0.65L176.04 0.65Q172.14 0.65 170.01-1.95 167.89-4.55 167.89-9.6L167.89-9.6 167.89-19.6 163.19-19.6 163.19-23.55 172.79-23.55 172.79-9.75Q172.79-6.95 173.96-5.43 175.14-3.9 177.74-3.9L177.74-3.9Q181.59-3.9 185.94-8.75L185.94-8.75 185.94-19.6 181.64-19.6 181.64-23.55 190.84-23.55 190.84-6.05Q190.84-3.6 192.54-3.6L192.54-3.6Q193.54-3.6 194.09-4L194.09-4ZM207.54-3.95L212.99-3.95 212.99 0 197.39 0 197.39-3.95 202.64-3.95 202.64-30.35 197.39-30.35 197.39-34.3 207.54-34.3 207.54-3.95ZM260.53-4.15L266.98-4.15 266.98 0 249.53 0 249.53-4.15 255.48-4.15 255.48-20.95Q255.48-23.35 256.08-27.2L256.08-27.2 242.43 0.35 239.83 0.35 226.28-27Q226.73-23.05 226.73-20.95L226.73-20.95 226.73-4.15 232.68-4.15 232.68 0 215.48 0 215.48-4.15 221.88-4.15 221.88-30.15 215.48-30.15 215.48-34.3 227.58-34.3 241.33-6.85 254.83-34.3 266.93-34.3 266.93-30.15 260.53-30.15 260.53-4.15ZM291.88-6.7L293.98-3.5Q289.18 0.7 283.03 0.7L283.03 0.7Q279.68 0.7 276.68-0.7 273.68-2.1 271.83-4.8 269.98-7.5 269.98-11.2L269.98-11.2Q269.98-15.15 271.88-18.1 273.78-21.05 276.83-22.63 279.88-24.2 283.23-24.2L283.23-24.2Q286.18-24.2 288.5-23.25 290.83-22.3 292.16-20.6 293.48-18.9 293.48-16.7L293.48-16.7Q293.48-13.4 290.66-11.58 287.83-9.75 283.88-9.75L283.88-9.75Q281.33-9.75 279.13-10.28 276.93-10.8 274.68-11.8L274.68-11.8 274.68-11.35Q274.68-9 275.81-7.2 276.93-5.4 278.83-4.45 280.73-3.5 282.98-3.5L282.98-3.5Q288.08-3.5 291.88-6.7L291.88-6.7ZM283.58-20.3Q280.88-20.3 278.56-18.75 276.23-17.2 275.23-14.55L275.23-14.55Q279.03-13.2 282.83-13.2L282.83-13.2Q285.33-13.2 286.95-14.13 288.58-15.05 288.58-16.7L288.58-16.7Q288.58-18.3 287.18-19.3 285.78-20.3 283.58-20.3L283.58-20.3ZM343.48-3.95L348.13-3.95 348.13 0 334.33 0 334.33-3.95 338.58-3.95 338.58-14Q338.58-16.6 337.43-18.1 336.28-19.6 333.98-19.6L333.98-19.6Q331.93-19.6 329.78-18.25 327.63-16.9 325.58-14.4L325.58-14.4 325.58-14.15 325.58-3.95 329.88-3.95 329.88 0 316.38 0 316.38-3.95 320.68-3.95 320.68-14Q320.68-16.6 319.48-18.1 318.28-19.6 315.98-19.6L315.98-19.6Q313.93-19.6 311.78-18.23 309.63-16.85 307.53-14.3L307.53-14.3 307.53-3.95 311.88-3.95 311.88 0 297.33 0 297.33-3.95 302.63-3.95 302.63-19.6 297.33-19.6 297.33-23.55 307.53-23.55 307.53-18.4Q309.73-21.15 312.33-22.65 314.93-24.15 317.73-24.15L317.73-24.15Q320.58-24.15 322.5-22.58 324.43-21 325.18-17.95L325.18-17.95Q327.43-20.9 330.1-22.53 332.78-24.15 335.68-24.15L335.68-24.15Q339.33-24.15 341.4-21.58 343.48-19 343.48-14.15L343.48-14.15 343.48-3.95ZM363.63 0.7Q360.18 0.7 357.18-0.85 354.18-2.4 352.4-5.25 350.63-8.1 350.63-11.75L350.63-11.75Q350.63-15.45 352.4-18.28 354.18-21.1 357.18-22.65 360.18-24.2 363.63-24.2L363.63-24.2Q367.02-24.2 370-22.65 372.97-21.1 374.77-18.25 376.57-15.4 376.57-11.75L376.57-11.75Q376.57-8.1 374.82-5.25 373.07-2.4 370.1-0.85 367.13 0.7 363.63 0.7L363.63 0.7ZM363.63-3.25Q365.88-3.25 367.68-4.3 369.47-5.35 370.5-7.28 371.52-9.2 371.52-11.75L371.52-11.75Q371.52-14.3 370.5-16.23 369.47-18.15 367.68-19.2 365.88-20.25 363.63-20.25L363.63-20.25Q360.18-20.25 357.95-17.93 355.72-15.6 355.72-11.75L355.72-11.75Q355.72-7.9 357.95-5.58 360.18-3.25 363.63-3.25L363.63-3.25Z" opacity="1" transform="matrix(1,0,0,1,0,0)" fill="#270206" class="wordmark-text-0" data-fill-palette-color="primary" id="text-0"></path></svg></g></svg></g><g transform="matrix(1,0,0,1,0,48.71970468268943)"><svg viewBox="0 0 144.70703802678008 24.358354578441833" height="24.358354578441833" width="144.70703802678008"><g transform="matrix(1,0,0,1,0,0)"><svg width="144.70703802678008" viewBox="2.9 -37.1 290.77000000000004 48.95" height="24.358354578441833" data-palette-color="#2d2b2b"><path d="M26.45-8.6L26.6-8.35Q25.75-4.3 25.25 0.05L25.25 0.05 25 0.35Q14.5 0 9.85 0L9.85 0Q6.15 0 2.9 0.5L2.9 0.5 3.2-1.8Q5.45-2.1 6.28-2.98 7.1-3.85 7.1-6L7.1-6 7.15-27Q7.15-28.6 6.78-29.15 6.4-29.7 5.3-29.7L5.3-29.7 3.6-29.6 3.5-29.8 3.85-32Q8.95-31.85 10.8-31.85L10.8-31.85Q16.75-31.85 20.05-31.98 23.35-32.1 25.8-32.45L25.8-32.45 25.95-32.15Q25.05-28.2 24.8-23.85L24.8-23.85 22.4-23.65 22.5-25.8Q22.5-27.55 22.05-28.23 21.6-28.9 20.1-29.13 18.6-29.35 14.85-29.35L14.85-29.35Q13.1-29.35 12.45-29.25 11.8-29.15 11.6-28.78 11.4-28.4 11.35-27.4L11.35-27.4 10.95-17.7 16.1-17.65Q18.05-17.65 22.2-18.2L22.2-18.2 22.4-17.95 21.7-15Q16.15-15.15 14.7-15.15L14.7-15.15Q13.05-15.15 10.85-14.8L10.85-14.8 10.65-5.25Q10.65-3.8 10.9-3.23 11.15-2.65 11.93-2.45 12.7-2.25 14.6-2.25L14.6-2.25Q18.8-2.25 20.58-2.65 22.35-3.05 23.1-4.25 23.85-5.45 24.25-8.35L24.25-8.35 26.45-8.6ZM42.35 0.3L42.25 0.05 42.55-1.5Q43.8-1.55 44.32-1.78 44.85-2 44.85-2.55L44.85-2.55Q44.85-3.2 44-4.4L44-4.4 40.35-9.5Q37.9-6.5 36.6-4.83 35.3-3.15 35.3-2.55L35.3-2.55Q35.3-2.05 35.72-1.9 36.15-1.75 37.5-1.65L37.5-1.65 37.6-1.45 37.3 0.2Q36.8 0.15 35.55 0.08 34.3 0 33.15 0L33.15 0Q32.1 0 31.27 0.05 30.45 0.1 30.15 0.15L30.15 0.15 30-0.1 30.3-1.65Q31.4-2.25 32.15-2.95 32.9-3.65 33.77-4.67 34.65-5.7 34.95-6.05L34.95-6.05 39.25-11.05 35.45-16.45Q33.75-18.9 32.77-19.7 31.8-20.5 30.05-20.8L30.05-20.8 29.95-21 30.25-22.7Q30.8-22.7 32.32-22.65 33.85-22.6 35.3-22.6L35.3-22.6Q37.1-22.6 38.55-22.68 40-22.75 40.4-22.8L40.4-22.8 40.5-22.55 40.2-21Q39-21 38.47-20.78 37.95-20.55 37.95-20.05L37.95-20.05Q37.95-19.6 38.32-18.98 38.7-18.35 39.15-17.7L39.15-17.7 41.9-13.7 44.95-17.55Q45.85-18.6 46.17-19.13 46.5-19.65 46.5-20.1L46.5-20.1Q46.5-20.5 46.05-20.63 45.6-20.75 44.35-20.75L44.35-20.75 44.25-20.95 44.5-22.6 48.15-22.6Q49.25-22.6 50.3-22.65 51.35-22.7 51.7-22.75L51.7-22.75 51.85-22.5 51.55-20.9Q50.2-20.45 47.35-17.15L47.35-17.15 43.05-12.1 47.65-5.55Q48.95-3.65 50.1-2.8 51.25-1.95 52.7-1.8L52.7-1.8 52.8-1.6 52.5 0.1Q52 0.1 50.67 0.05 49.35 0 47.95 0L47.95 0Q46.7 0 44.82 0.13 42.95 0.25 42.35 0.3L42.35 0.3ZM55.55 11.85L55.8 9.9Q56.9 9.75 57.42 9.45 57.95 9.15 58.15 8.45 58.34 7.75 58.34 6.3L58.34 6.3Q58.34 4.2 58.4 2.7L58.4 2.7 58.45-2 58.45-16.9Q58.45-18.6 57.9-19.28 57.34-19.95 56-19.95L56-19.95 55.45-19.95 55.3-20.15 55.45-21.8Q57.59-22.15 59.72-22.63 61.84-23.1 62.45-23.25L62.45-23.25 62.75-22.85Q62.7-22.6 62.52-21.78 62.34-20.95 62.25-20.15L62.25-20.15 62.45-19.8Q67.15-23.05 68.25-23.05L68.25-23.05Q71.09-23.05 73.3-21.73 75.5-20.4 76.7-18 77.9-15.6 77.9-12.5L77.9-12.5Q77.9-8.95 76.2-5.95 74.5-2.95 71.65-1.18 68.8 0.6 65.45 0.6L65.45 0.6Q64.34 0.6 63.27 0.53 62.2 0.45 61.8 0.4L61.8 0.4 61.84 5.55Q61.84 7.85 62.32 8.68 62.8 9.5 64.2 9.5L64.2 9.5 65.9 9.45 66 9.6 65.59 11.5 60.84 11.5Q59.05 11.5 57.52 11.65 56 11.8 55.55 11.85L55.55 11.85ZM66.84-2.15Q70.2-2.15 72.12-4.42 74.05-6.7 74.05-10.65L74.05-10.65Q74.05-13.15 73.17-15.2 72.3-17.25 70.77-18.45 69.25-19.65 67.45-19.65L67.45-19.65Q66.45-19.65 65-18.98 63.55-18.3 62.25-17.2L62.25-17.2Q61.84-10.65 61.84-3.1L61.84-3.1Q62.84-2.7 64.22-2.43 65.59-2.15 66.84-2.15L66.84-2.15ZM81.04 0.6L81.24-1.45Q82.64-1.85 83.22-2.45 83.79-3.05 83.92-3.9 84.04-4.75 84.04-6.75L84.04-6.75 84.04-31.3Q84.04-32.85 83.69-33.4 83.34-33.95 82.24-33.95L82.24-33.95Q81.99-33.95 81.09-33.85L81.09-33.85 80.94-33.95 81.14-35.65Q85.34-36.25 88.54-37.1L88.54-37.1 88.84-36.45Q88.29-35.6 87.87-25.75 87.44-15.9 87.44-4.9L87.44-4.9Q87.44-3.4 87.84-2.75 88.24-2.1 89.19-2.1L89.19-2.1 90.94-2.2 91.04-2 90.64 0.15Q87.34 0 86.19 0L86.19 0Q84.49 0 81.04 0.6L81.04 0.6ZM103.39 0.6Q100.54 0.6 98.34-0.8 96.14-2.2 94.92-4.73 93.69-7.25 93.69-10.5L93.69-10.5Q93.69-14 95.22-16.93 96.74-19.85 99.39-21.53 102.04-23.2 105.29-23.2L105.29-23.2Q108.09-23.2 110.32-21.8 112.54-20.4 113.77-17.88 114.99-15.35 114.99-12.1L114.99-12.1Q114.99-8.6 113.47-5.68 111.94-2.75 109.29-1.07 106.64 0.6 103.39 0.6L103.39 0.6ZM104.79-1.85Q107.59-1.85 109.24-4.13 110.89-6.4 110.89-10.3L110.89-10.3Q110.89-13.25 109.99-15.58 109.09-17.9 107.47-19.2 105.84-20.5 103.79-20.5L103.79-20.5Q100.99-20.5 99.34-18.2 97.69-15.9 97.69-11.95L97.69-11.95Q97.69-9 98.59-6.7 99.49-4.4 101.09-3.13 102.69-1.85 104.79-1.85L104.79-1.85ZM119.74-1.8Q121.24-1.95 121.74-2.78 122.24-3.6 122.24-5.95L122.24-5.95 122.24-16.95Q122.24-18.6 121.79-19.3 121.34-20 120.34-20L120.34-20Q119.94-20 119.66-19.95 119.39-19.9 119.29-19.85L119.29-19.85 119.04-20.2 119.19-21.75Q121.09-22.1 123.21-22.6 125.34-23.1 125.94-23.25L125.94-23.25 126.29-22.95Q126.19-22.5 125.99-20.88 125.79-19.25 125.84-17.8L125.84-17.8 126.04-17.65Q127.54-20 129.56-21.5 131.59-23 133.09-23L133.09-23Q133.79-23 134.16-22.93 134.54-22.85 134.64-22.8L134.64-22.8 134.79-22.6Q134.69-21.9 134.36-19.63 134.04-17.35 133.99-15.45L133.99-15.45 132.04-15.3Q132.04-17.35 131.76-18.03 131.49-18.7 130.69-18.7L130.69-18.7Q129.59-18.7 128.34-17.78 127.09-16.85 126.04-15.3L126.04-15.3Q125.99-13.85 125.84-10.5 125.69-7.15 125.64-5.1L125.64-5.1Q125.64-3.4 126.14-2.8 126.64-2.2 128.04-2.2L128.04-2.2Q128.69-2.2 129.34-2.25 129.99-2.3 130.24-2.3L130.24-2.3 130.29-2.1 129.84 0.1Q129.34 0.1 127.84 0.05 126.34 0 124.74 0L124.74 0Q122.89 0 121.39 0.08 119.89 0.15 119.49 0.2L119.49 0.2 119.74-1.8ZM147.74 0.6Q144.64 0.6 142.24-0.78 139.84-2.15 138.54-4.67 137.24-7.2 137.24-10.45L137.24-10.45Q137.24-13.8 138.76-16.75 140.29-19.7 142.84-21.45 145.39-23.2 148.29-23.2L148.29-23.2Q151.94-23.2 153.84-21.35 155.74-19.5 155.74-15.95L155.74-15.95Q155.74-14.5 155.44-13.5L155.44-13.5 154.79-12.9 140.99-12.9Q140.94-8.05 142.91-5.43 144.89-2.8 148.44-2.8L148.44-2.8Q151.24-2.8 154.54-4.35L154.54-4.35 154.84-4.25 155.39-2.8Q153.59-1.5 151.41-0.45 149.24 0.6 147.74 0.6L147.74 0.6ZM141.19-14.75L150.24-15.2Q150.99-15.3 151.24-15.55 151.49-15.8 151.49-16.55L151.49-16.55Q151.49-18.55 150.41-19.6 149.34-20.65 147.34-20.65L147.34-20.65Q144.99-20.65 143.31-19.05 141.64-17.45 141.19-14.75L141.19-14.75ZM180.28 0.85Q179.58-1.65 177.06-10.15 174.53-18.65 171.93-26.8L171.93-26.8Q171.48-28.25 170.38-28.93 169.28-29.6 167.43-29.65L167.43-29.65 167.38-29.85 167.68-32Q168.33-32 170.03-31.93 171.73-31.85 173.33-31.85L173.33-31.85Q175.53-31.85 177.73-32.08 179.93-32.3 180.58-32.4L180.58-32.4 180.73-32.05 180.53-30.1Q177.98-29.9 177.11-29.5 176.23-29.1 176.23-28.05L176.23-28.05Q176.23-27.2 177.61-22.03 178.98-16.85 180.46-11.65 181.93-6.45 182.38-4.85L182.38-4.85 182.68-4.85 189.73-24.05 188.83-26.8Q188.33-28.25 187.28-28.9 186.23-29.55 184.33-29.65L184.33-29.65 184.23-29.85 184.58-32Q185.23-32 186.93-31.93 188.63-31.85 190.23-31.85L190.23-31.85Q192.13-31.85 194.46-32.08 196.78-32.3 197.48-32.4L197.48-32.4 197.63-32.05 197.43-30.1Q194.83-29.9 193.96-29.5 193.08-29.1 193.08-28L193.08-28Q193.08-26.95 195.68-17.6 198.28-8.25 199.28-4.85L199.28-4.85 199.58-4.85Q199.68-5.15 199.81-5.48 199.93-5.8 200.08-6.25L200.08-6.25Q207.68-26.65 207.68-28.1L207.68-28.1Q207.68-29.05 206.88-29.45 206.08-29.85 204.28-29.85L204.28-29.85 201.78-29.85 201.68-30.05 202.03-32.2Q202.68-32.15 204.83-32 206.98-31.85 208.98-31.85L208.98-31.85Q210.78-31.85 212.28-31.9 213.78-31.95 214.28-32L214.28-32 213.93-29.65Q212.43-29.55 211.83-29.13 211.23-28.7 210.73-27.25L210.73-27.25 200.23-0.25 197.13 0.85Q196.63-0.9 194.81-7.2 192.98-13.5 190.88-20.35L190.88-20.35 190.58-20.35 183.48-0.25 180.28 0.85ZM222.08 0.6Q219.23 0.6 217.03-0.8 214.83-2.2 213.6-4.73 212.38-7.25 212.38-10.5L212.38-10.5Q212.38-14 213.9-16.93 215.43-19.85 218.08-21.53 220.73-23.2 223.98-23.2L223.98-23.2Q226.78-23.2 229-21.8 231.23-20.4 232.45-17.88 233.68-15.35 233.68-12.1L233.68-12.1Q233.68-8.6 232.15-5.68 230.63-2.75 227.98-1.07 225.33 0.6 222.08 0.6L222.08 0.6ZM223.48-1.85Q226.28-1.85 227.93-4.13 229.58-6.4 229.58-10.3L229.58-10.3Q229.58-13.25 228.68-15.58 227.78-17.9 226.15-19.2 224.53-20.5 222.48-20.5L222.48-20.5Q219.68-20.5 218.03-18.2 216.38-15.9 216.38-11.95L216.38-11.95Q216.38-9 217.28-6.7 218.18-4.4 219.78-3.13 221.38-1.85 223.48-1.85L223.48-1.85ZM238.43-1.8Q239.93-1.95 240.43-2.78 240.93-3.6 240.93-5.95L240.93-5.95 240.93-16.95Q240.93-18.6 240.48-19.3 240.03-20 239.03-20L239.03-20Q238.63-20 238.35-19.95 238.08-19.9 237.98-19.85L237.98-19.85 237.73-20.2 237.88-21.75Q239.78-22.1 241.9-22.6 244.03-23.1 244.63-23.25L244.63-23.25 244.98-22.95Q244.88-22.5 244.68-20.88 244.48-19.25 244.53-17.8L244.53-17.8 244.73-17.65Q246.23-20 248.25-21.5 250.28-23 251.78-23L251.78-23Q252.48-23 252.85-22.93 253.23-22.85 253.33-22.8L253.33-22.8 253.48-22.6Q253.38-21.9 253.05-19.63 252.73-17.35 252.68-15.45L252.68-15.45 250.73-15.3Q250.73-17.35 250.45-18.03 250.18-18.7 249.38-18.7L249.38-18.7Q248.28-18.7 247.03-17.78 245.78-16.85 244.73-15.3L244.73-15.3Q244.68-13.85 244.53-10.5 244.38-7.15 244.33-5.1L244.33-5.1Q244.33-3.4 244.83-2.8 245.33-2.2 246.73-2.2L246.73-2.2Q247.38-2.2 248.03-2.25 248.68-2.3 248.93-2.3L248.93-2.3 248.98-2.1 248.53 0.1Q248.03 0.1 246.53 0.05 245.03 0 243.43 0L243.43 0Q241.58 0 240.08 0.08 238.58 0.15 238.18 0.2L238.18 0.2 238.43-1.8ZM255.97 0.6L256.17-1.45Q257.57-1.85 258.15-2.45 258.72-3.05 258.85-3.9 258.97-4.75 258.97-6.75L258.97-6.75 258.97-31.3Q258.97-32.85 258.62-33.4 258.27-33.95 257.17-33.95L257.17-33.95Q256.92-33.95 256.02-33.85L256.02-33.85 255.87-33.95 256.07-35.65Q260.27-36.25 263.47-37.1L263.47-37.1 263.77-36.45Q263.22-35.6 262.8-25.75 262.37-15.9 262.37-4.9L262.37-4.9Q262.37-3.4 262.77-2.75 263.17-2.1 264.12-2.1L264.12-2.1 265.87-2.2 265.97-2 265.57 0.15Q262.27 0 261.12 0L261.12 0Q259.42 0 255.97 0.6L255.97 0.6ZM289.32 0.6Q285.42 0.6 284.87-2.95L284.87-2.95 284.52-3.1Q279.32 0.45 278.27 0.45L278.27 0.45Q275.42 0.45 273.22-0.88 271.02-2.2 269.82-4.6 268.62-7 268.62-10.1L268.62-10.1Q268.62-13.65 270.3-16.65 271.97-19.65 274.85-21.43 277.72-23.2 281.07-23.2L281.07-23.2Q282.67-23.2 284.52-23L284.52-23 284.52-31.3Q284.52-34 282.67-34L282.67-34Q282.32-34 281.92-33.93 281.52-33.85 281.42-33.8L281.42-33.8 281.62-35.65Q283.77-35.95 286.07-36.45 288.37-36.95 289.02-37.1L289.02-37.1 289.32-36.45Q288.77-35.6 288.35-25.9 287.92-16.2 287.92-5.25L287.92-5.25Q287.92-4.15 288.47-3.55 289.02-2.95 289.97-2.95L289.97-2.95Q290.67-2.95 291.35-3.23 292.02-3.5 292.45-3.8 292.87-4.1 292.97-4.2L292.97-4.2 293.67-3.4Q293.52-3.15 292.92-2.33 292.32-1.5 291.35-0.6 290.37 0.3 289.32 0.6L289.32 0.6ZM279.07-2.8Q280.12-2.8 281.35-3.4 282.57-4 283.42-4.63 284.27-5.25 284.52-5.45L284.52-5.45 284.52-19.15Q284.37-19.25 283.77-19.53 283.17-19.8 282.1-20.05 281.02-20.3 279.67-20.3L279.67-20.3Q276.32-20.3 274.4-18.03 272.47-15.75 272.47-11.8L272.47-11.8Q272.47-9.3 273.35-7.25 274.22-5.2 275.75-4 277.27-2.8 279.07-2.8L279.07-2.8Z" opacity="1" transform="matrix(1,0,0,1,0,0)" fill="#2d2b2b" class="slogan-text-1" data-fill-palette-color="secondary" id="text-1"></path></svg></g></svg></g></svg></g></svg></g><g transform="matrix(1,0,0,1,0,0.18269514815282406)"><svg viewBox="0 0 73.05602852713538 73.07805926113127" height="73.07805926113127" width="73.05602852713538"><g><svg xmlns="http://www.w3.org/2000/svg" xmlns:xlink="http://www.w3.org/1999/xlink" version="1.1" x="0" y="0" viewBox="5.0880977198060595 4.656180236172516 66.54412884490382 66.56419585417227" enable-background="new 0 0 75 75" xml:space="preserve" height="73.07805926113127" width="73.05602852713538" class="icon-icon-0" data-fill-palette-color="accent" id="icon-0"><g fill="#252424" data-fill-palette-color="accent"><g fill="#252424" data-fill-palette-color="accent"><g fill="#252424" data-fill-palette-color="accent"><path d="M14.291 23.127l-1.135 2.508c1.796 1.206 3.72 2.119 5.757 2.738 0.263-1.003 0.713-1.983 1.072-2.967 0.146-0.398-0.252-1.393 0.857-0.933 0.088-0.273 0.301-0.583 0.236-0.814-0.134-0.477-0.427-0.908-0.633-1.367-0.095-0.21-0.237-0.468-0.189-0.664 0.38-1.584-0.036-3.172 0.041-4.756 0.006-0.128-0.278-0.28-0.439-0.403-0.185-0.141-0.395-0.249-0.574-0.396-1.463-1.198-2.426-1.385-3.374-0.132-0.15 0.199-0.342 0.378-0.545 0.522-0.257 0.181-0.546 0.317-0.822 0.472-0.038-0.375-0.18-0.78-0.085-1.118 0.086-0.307 0.402-0.572 0.664-0.801 0.416-0.365 0.884-0.671 1.306-1.031 0.252-0.215 0.657-0.461 0.264-0.834-0.083-0.08-0.534 0.103-0.719 0.271-1.99 1.808-3.815 3.777-5.269 6.041-0.494 0.769-0.956 1.545-1.386 2.328L14.291 23.127z" fill="#252424" data-fill-palette-color="accent"></path></g><g fill="#252424" data-fill-palette-color="accent"><path d="M42.123 70.074c0.229-1.125-1.058-2.229-0.039-3.361 0.114-0.125 0.1-0.384 0.111-0.584 0.045-0.854-0.042-1.737 0.143-2.56 0.435-1.93-0.199-3.083-2.059-3.853-0.734-0.304-1.191-1.295-1.76-1.986-0.47-0.573-0.929-1.158-1.372-1.753-0.136-0.184-0.329-0.47-0.27-0.622 0.149-0.387 0.425-0.726 0.651-1.084-0.604-0.302-0.548-0.758-0.238-1.217 0.247-0.365 0.524-0.724 0.851-1.016 0.798-0.714 0.845-1.546 0.498-2.474-0.14-0.376-0.271-0.755-0.407-1.131-0.316 0.009-0.633 0.019-0.949 0.028-0.189 0.171-0.423 0.519-0.559 0.484-0.883-0.226-1.81-0.594-2.244-1.382-0.983-1.784-3.254-1.469-4.415-2.893-0.024-0.03-0.102-0.041-0.145-0.029-1.508 0.432-2.595-0.568-3.797-1.139-0.696-0.33-1.188-0.803-1.264-1.716-0.054-0.651-0.482-1.281-0.789-1.898-0.199-0.398-0.511-0.739-0.717-1.134-0.487-0.935-0.935-1.89-1.418-2.825-0.083-0.163-0.263-0.276-0.398-0.412-0.117 0.185-0.246 0.365-0.343 0.559-0.041 0.083 0.001 0.202-0.019 0.3-0.018 0.092-0.068 0.177-0.105 0.265-0.109-0.091-0.282-0.163-0.317-0.276-0.148-0.481-0.236-0.98-0.384-1.461-0.101-0.328-0.177-0.737-0.411-0.937-0.652-0.556-1.007-1.2-1.184-1.884-2.671-0.345-5.112-1.27-7.284-2.765l-1.398 3.093-2.875-6.104c-2.17 5.689-2.716 11.709-1.477 18.058 1.486 7.615 5.257 13.979 11.167 18.969 6.647 5.611 14.416 8.19 23.113 7.858 1.215-0.045 2.419-0.38 3.628-0.588-0.336-0.022-0.68-0.011-0.996-0.099C42.442 70.447 42.1 70.183 42.123 70.074z" fill="#252424" data-fill-palette-color="accent"></path></g><g fill="#252424" data-fill-palette-color="accent"><path d="M43.697 70.597c-0.018 0.002-0.032 0.007-0.048 0.009 0.019 0.001 0.037 0.001 0.057 0.004L43.697 70.597z" fill="#252424" data-fill-palette-color="accent"></path></g></g><g fill="#252424" data-fill-palette-color="accent"><g fill="#252424" data-fill-palette-color="accent"><path d="M44.946 47.787c0.211-0.075 0.406-0.112 0.591-0.123-0.074-6.17-2.747-10.923-5.274-14.042-0.16 0.211-0.374 0.392-0.655 0.544-0.482 0.262-0.881 0.676-1.346 0.978-0.671 0.436-0.97 0.965-0.732 1.79 0.166 0.577 0.24 1.188 0.281 1.788 0.015 0.211-0.189 0.438-0.294 0.657-0.169-0.144-0.392-0.257-0.493-0.438-0.145-0.258-0.258-0.562-0.282-0.854-0.063-0.775-0.244-1.301-1.202-1.409-0.676-0.077-1.391-0.661-2.016-0.203-0.136 0.101-0.265 0.191-0.39 0.268-0.659 0.927-1.53 1.769-2.688 2.382l1.037 1.396-2.849-0.192c-0.024 0.221-0.046 0.441-0.068 0.662-0.089 0.891 0.739 2.294 1.479 2.441 0.47 0.094 1.037 0.096 1.461-0.089 0.348-0.151 0.552-0.638 0.815-0.979 0.061-0.08 0.091-0.231 0.161-0.249 0.465-0.114 0.937-0.201 1.407-0.298-0.063 0.305-0.119 0.611-0.191 0.913-0.07 0.292-0.143 0.586-0.24 0.87-0.383 1.129-0.386 1.125 0.883 1.235 0.25 0.022 0.51 0.034 0.744 0.113 0.482 0.162 0.788 0.447 0.576 1.025-0.086 0.235-0.147 0.487-0.17 0.734-0.11 1.202 0.456 1.75 1.791 1.754 0.316-0.01 0.633-0.02 0.949-0.028 0.407 0.23 0.763 0.638 1.188-0.065 0.544-0.895 1.267-1.56 2.438-0.945 0.697-0.401 1.291-0.176 1.931 0.21C44.101 47.821 44.615 47.908 44.946 47.787z" fill="#252424" data-fill-palette-color="accent"></path></g><g fill="#252424" data-fill-palette-color="accent"><path d="M70.885 31.56c-0.04-0.202-0.436-0.513-0.591-0.474-0.293 0.074-0.677 0.317-0.766 0.577-0.207 0.612-1.774 1.397-1.826 1.096-0.102-0.593-0.058-0.86-0.04-1.463 0.003-0.125 0.266-0.335 0.423-0.349 0.866-0.074 1.17-0.32 0.767-1.008-0.668-1.141 0.009-1.999 0.508-2.736 0.279-0.413 0.306-0.575 0.142-0.933-0.689-1.502-1.373-3.008-2.062-4.512-0.062-0.137-0.141-0.268-0.216-0.4-1.592-2.786-3.54-5.29-5.92-7.445-0.228-0.205-0.562-0.291-0.847-0.433-0.112 0.374-0.336 0.759-0.302 1.118 0.028 0.292 0.373 0.55 0.569 0.828 0.054 0.076 0.128 0.183 0.107 0.25-0.019 0.063-0.188 0.15-0.228 0.126-0.823-0.5-1.408 0.431-2.087 0.366-1.019-0.097-1.347 0.444-1.589 1.23-0.119 0.385-0.243 0.772-0.421 1.13-0.05 0.102-0.342 0.193-0.447 0.14-1.038-0.521-1.803-1.228-1.807-2.525-0.001-0.412-0.219-0.83-0.37-1.233-0.121-0.324-0.243-0.588 0.299-0.573 0.07 0.002 0.178-0.266 0.218-0.421 0.428-1.654-1.274-2.442-1.593-3.831-0.12-0.521-0.86-0.91-1.346-1.328-0.141-0.121-0.377-0.128-0.568-0.193-0.285-0.098-0.568-0.202-0.815-0.29 0.336-0.271 0.659-0.532 0.983-0.792-0.388-0.205-0.763-0.442-1.168-0.603-0.368-0.146-0.823-0.123-1.146-0.325-0.634-0.396-1.821-0.603-1.957-0.688-0.165-0.105-0.372-0.195-0.562-0.197-0.244-0.002-1.476-0.307-1.5-0.315-0.281-0.104-0.577-0.188-0.876-0.231-0.998-0.146-1.995-0.333-2.998-0.396-4.959-0.305-9.782 0.368-14.425 2.158-1.222 0.472-2.392 1.078-3.577 1.641-0.1 0.048-0.133 0.235-0.197 0.358 0.093 0.035 0.184 0.091 0.28 0.101 0.749 0.075 1.528 0.039 2.237 0.247 0.447 0.131 0.813 0.195 1.284 0.147 1.2-0.122 2.388-0.598 3.617-0.239 0.614 0.18 1.344 0.245 1.8 0.626 0.724 0.607 0.649 0.685 1.103 0.774 0.169 0.033 0.454 0.151 0.46 0.244 0.03 0.483 0.136 0.481 0.513 0.216 0.379-0.266 0.874-0.625 1.264-0.569 0.831 0.119 1.726 0.333 2.41 0.785 0.696 0.461 1.001 0.008 1.431-0.248 0.511-0.305 0.935-0.651 0.4-1.322-0.06-0.076 0.209-0.476 0.394-0.657 0.122-0.12 0.365-0.118 0.555-0.17 0.048 0.224 2.202 2.091 2.588 1.864 0.16-0.096 0.46-0.011 0.673 0.062 0.094 0.032 0.128 0.238 0.19 0.365-0.487 0.153-2.604 1.273-3.101 1.833-0.285 0.321-0.683 0.639-1.085 0.742-1.436 0.364-2.49 1.286-3.504 2.265-0.378 0.365-0.179 2.516 0.192 2.522 1.328 0.02 1.899 1.302 2.991 1.645 0.655 0.205 0.732 0.592 0.594 1.155-0.048 0.19-0.147 0.459-0.062 0.576 0.278 0.383 0.631 0.712 0.955 1.062 0.233-0.354 0.647-0.699 0.663-1.062 0.033-0.793 0.097-1.395 1.008-1.694 0.299-0.098 0.691-0.808 0.592-1.061-0.411-1.039 0.292-1.82 0.464-2.709 0.179-0.923 0.243-0.911 1.209-0.688 0.818 0.19 1.869 1.183 1.646 1.743-0.295 0.736 0.219 1.058 0.558 1.344 0.154 0.131 0.753-0.25 1.143-0.418 0.082-0.036 0.122-0.158 0.192-0.229 0.271-0.278 0.374-0.13 0.512 0.156 0.512 1.059 0.369 2.389 1.301 3.276 0.479-0.039 0.966-0.061 1.457-0.061 2.556 0 4.992 0.559 7.249 1.661l0.925-3.267 7.321 10.958-10.095-1.151 0.749-2.65c-2.921-1.383-6.06-2.084-9.33-2.084-0.607 0-1.2 0.025-1.777 0.069 0.069 0.053 0.162 0.076 0.272 0.045 0.024 0.343 0.013 0.693 0.086 1.025 0.053 0.236 0.187 0.475 0.341 0.666 0.447 0.554 0.242 0.918-0.312 1.187-0.148 0.072-0.33 0.079-0.495 0.115 0.031-0.14 0.049-0.286 0.099-0.419 0.048-0.129 0.13-0.244 0.196-0.366-0.143-0.027-0.309-0.113-0.427-0.07-0.467 0.169-0.914 0.387-1.376 0.57-0.54 0.215-1.033 0.503-1.104 1.13-0.044 0.39-1.923 2.045-2.811 2.966 3.861 3.009 8.551 8.17 8.444 15.437l3.349-0.553-1.981 3.287c0.739 0.45 1.018 1.367 0.633 2.36-0.179 0.462 0.049 0.536 0.384 0.541 0.299 0.004 0.598-0.058 0.897-0.087 0.246-0.023 0.601-0.155 0.724-0.041 1.075 0.997 2.701 0.063 3.777 1.15 0.629 0.637 0.919 1.003 0.327 1.617-1.161 1.207-1.657 2.707-2.265 4.186-0.262 0.637-0.741 1.098-1.472 1.409-1.031 0.438-1.832 1.15-2.555 2.165-0.787 1.104-1.541 2.694-3.376 2.671-0.099-0.001-0.306 0.282-0.283 0.321 0.357 0.576-0.064 0.732-0.464 0.844-1.797 0.496-2.938 1.652-3.52 3.397 0.646-0.058 1.31-0.038 1.934-0.188 10.304-2.476 17.83-8.468 22.662-17.893 0.796-1.553 1.176-3.215 1.628-4.867 0.104-0.377-0.033-0.477-0.297-0.688-0.343-0.275-0.504-0.123-0.762 0.069-0.36 0.27-0.762 0.482-1.138 0.73-0.413 0.271-0.738 0.248-0.991-0.222-0.31-0.57-0.591-1.165-0.974-1.683-0.475-0.642-0.496-1.264-0.264-1.995 0.181-0.57 0.394-1.218 0.289-1.775-0.284-1.511 0.479-2.607 1.202-3.762 0.287-0.454 0.633-0.958 0.673-1.463 0.111-1.383 1.089-1.854 2.146-2.259 0.416-0.159 0.821-0.055 0.869 0.513 0.06 0.707 0.253 1.345 0.926 1.947C71.742 35.075 71.238 33.324 70.885 31.56zM49.673 14.441c-0.057 0.034-0.298-0.083-0.314-0.162-0.156-0.735-0.726-0.739-1.285-0.751-0.6-0.015-1.098-0.012-0.959-0.914 0.05-0.316-0.437-0.712-0.675-1.074-0.537-0.815-1.135-1.479-2.272-1.259-0.323 0.062-0.688-0.131-1.038-0.154-0.643-0.041-0.621-0.611-0.715-0.984C42.362 8.94 42.659 8.567 42.891 8.4c0.214-0.152 0.551-0.129 0.833-0.183-0.135 0.202-0.313 0.389-0.389 0.611-0.056 0.159 0.025 0.365 0.046 0.55 0.143-0.087 0.301-0.158 0.426-0.267 0.187-0.164 0.326-0.396 0.534-0.52 0.154-0.092 0.551-0.094 0.554-0.078 0.227 1.113 1.494 0.802 2.05 1.526 0.559 0.726 1.426 1.17 1.582 2.247 0.056 0.389 0.689 0.683 1.03 1.046 0.188 0.199 0.313 0.454 0.45 0.656C49.854 14.21 49.79 14.37 49.673 14.441z" fill="#252424" data-fill-palette-color="accent"></path></g><g fill="#252424" data-fill-palette-color="accent"><polygon points="43.706,70.609 43.71,70.596 43.697,70.597    " fill="#252424" data-fill-palette-color="accent"></polygon></g></g></g><path d="M21.209 31.595c-3.637 0-6.887-1.019-9.662-3.027l-0.321-0.233-1.145 2.534-4.421-9.39 7.728 2.076-1.044 2.309 0.223 0.153c3.826 2.637 8.221 3.974 13.062 3.974 0 0 0 0 0.001 0 2.068 0 3.894-0.247 5.332-0.539C28.57 30.46 25.03 31.595 21.209 31.595z" fill="#252424" data-fill-palette-color="accent"></path><path d="M57.879 29.147l0.689-2.438-0.243-0.119c-3.079-1.504-6.396-2.268-9.857-2.268-3.586 0-6.71 0.83-8.878 1.623 2.724-1.665 7.165-3.794 12.058-3.794 2.585 0 5.042 0.594 7.306 1.765l0.353 0.183 0.758-2.675 5.765 8.629L57.879 29.147z" fill="#252424" data-fill-palette-color="accent"></path><path d="M43.756 48.949l2.501-0.413 0.003-0.27c0.128-8.344-4.388-14.241-7.396-17.234 3.938 2.604 10.41 8.196 10.084 16.666l-0.016 0.396 2.743-0.453-5.358 8.889L43.756 48.949z" fill="#252424" data-fill-palette-color="accent"></path><path d="M26.173 39.51l2.163-2.233 0.662 0.89 0.243-0.12c2.622-1.3 4.11-3.346 4.944-5.088-0.504 2.05-1.661 4.524-4.295 5.756l-0.36 0.167 0.667 0.898L26.173 39.51z" fill="#252424" data-fill-palette-color="accent"></path><path d="M32.481 24.355c-1.595-1.383-3.271-3.539-3.167-6.445l0.015-0.397-1.104 0.185 2.074-3.459 1.002 2.943-1.094 0.184-0.003 0.271C30.167 20.562 31.31 22.818 32.481 24.355z" fill="#252424" data-fill-palette-color="accent"></path></svg></g></svg></g></svg></g><defs></defs></svg><rect width="395.52" height="59.19292618777868" fill="none" stroke="none" visibility="hidden"></rect></g></svg></g></svg>