<svg xmlns="http://www.w3.org/2000/svg" version="1.1" xmlns:xlink="http://www.w3.org/1999/xlink" xmlns:svgjs="http://svgjs.dev/svgjs" width="2000" height="2323" viewBox="0 0 2000 2323"><g transform="matrix(1,0,0,1,0.27374835407033515,2.2737367544323206e-13)"><svg viewBox="0 0 241 280" data-background-color="#ffffff" preserveAspectRatio="xMidYMid meet" height="2323" width="2000" xmlns="http://www.w3.org/2000/svg" xmlns:xlink="http://www.w3.org/1999/xlink"><g id="tight-bounds" transform="matrix(1,0,0,1,-0.03298667666547317,-2.842170943040401e-14)"><svg viewBox="0 0 241.06597335333092 280" height="280" width="241.06597335333092"><g><svg viewBox="0 0 278.2696 323.2123012475058" height="280" width="241.06597335333092"><g><svg viewBox="0 0 278.2696 323.2123012475058" height="323.2123012475058" width="278.2696"><g id="textblocktransform"><svg viewBox="0 0 278.2696 323.2123012475058" height="323.2123012475058" width="278.2696" id="textblock"><g><svg viewBox="0 0 278.2696 278.2696" height="278.2696" width="278.2696"><g transform="matrix(1,0,0,1,73.56579923085005,73.54602628064397)"><svg viewBox="0 0 131.13800153829993 131.17754743871208" height="131.17754743871208" width="131.13800153829993"><g id="icon-0"><svg xmlns="http://www.w3.org/2000/svg" xmlns:xlink="http://www.w3.org/1999/xlink" version="1.1" x="0" y="0" viewBox="5.0880977198060595 4.656180236172516 66.54412884490382 66.56419585417227" enable-background="new 0 0 75 75" xml:space="preserve" height="131.17754743871208" width="131.13800153829993" class="icon-xg-0" data-fill-palette-color="accent" id="xg-0"><g fill="#252424" data-fill-palette-color="accent"><g fill="#252424" data-fill-palette-color="accent"><g fill="#252424" data-fill-palette-color="accent"><path d="M14.291 23.127l-1.135 2.508c1.796 1.206 3.72 2.119 5.757 2.738 0.263-1.003 0.713-1.983 1.072-2.967 0.146-0.398-0.252-1.393 0.857-0.933 0.088-0.273 0.301-0.583 0.236-0.814-0.134-0.477-0.427-0.908-0.633-1.367-0.095-0.21-0.237-0.468-0.189-0.664 0.38-1.584-0.036-3.172 0.041-4.756 0.006-0.128-0.278-0.28-0.439-0.403-0.185-0.141-0.395-0.249-0.574-0.396-1.463-1.198-2.426-1.385-3.374-0.132-0.15 0.199-0.342 0.378-0.545 0.522-0.257 0.181-0.546 0.317-0.822 0.472-0.038-0.375-0.18-0.78-0.085-1.118 0.086-0.307 0.402-0.572 0.664-0.801 0.416-0.365 0.884-0.671 1.306-1.031 0.252-0.215 0.657-0.461 0.264-0.834-0.083-0.08-0.534 0.103-0.719 0.271-1.99 1.808-3.815 3.777-5.269 6.041-0.494 0.769-0.956 1.545-1.386 2.328L14.291 23.127z" fill="#252424" data-fill-palette-color="accent"></path></g><g fill="#252424" data-fill-palette-color="accent"><path d="M42.123 70.074c0.229-1.125-1.058-2.229-0.039-3.361 0.114-0.125 0.1-0.384 0.111-0.584 0.045-0.854-0.042-1.737 0.143-2.56 0.435-1.93-0.199-3.083-2.059-3.853-0.734-0.304-1.191-1.295-1.76-1.986-0.47-0.573-0.929-1.158-1.372-1.753-0.136-0.184-0.329-0.47-0.27-0.622 0.149-0.387 0.425-0.726 0.651-1.084-0.604-0.302-0.548-0.758-0.238-1.217 0.247-0.365 0.524-0.724 0.851-1.016 0.798-0.714 0.845-1.546 0.498-2.474-0.14-0.376-0.271-0.755-0.407-1.131-0.316 0.009-0.633 0.019-0.949 0.028-0.189 0.171-0.423 0.519-0.559 0.484-0.883-0.226-1.81-0.594-2.244-1.382-0.983-1.784-3.254-1.469-4.415-2.893-0.024-0.03-0.102-0.041-0.145-0.029-1.508 0.432-2.595-0.568-3.797-1.139-0.696-0.33-1.188-0.803-1.264-1.716-0.054-0.651-0.482-1.281-0.789-1.898-0.199-0.398-0.511-0.739-0.717-1.134-0.487-0.935-0.935-1.89-1.418-2.825-0.083-0.163-0.263-0.276-0.398-0.412-0.117 0.185-0.246 0.365-0.343 0.559-0.041 0.083 0.001 0.202-0.019 0.3-0.018 0.092-0.068 0.177-0.105 0.265-0.109-0.091-0.282-0.163-0.317-0.276-0.148-0.481-0.236-0.98-0.384-1.461-0.101-0.328-0.177-0.737-0.411-0.937-0.652-0.556-1.007-1.2-1.184-1.884-2.671-0.345-5.112-1.27-7.284-2.765l-1.398 3.093-2.875-6.104c-2.17 5.689-2.716 11.709-1.477 18.058 1.486 7.615 5.257 13.979 11.167 18.969 6.647 5.611 14.416 8.19 23.113 7.858 1.215-0.045 2.419-0.38 3.628-0.588-0.336-0.022-0.68-0.011-0.996-0.099C42.442 70.447 42.1 70.183 42.123 70.074z" fill="#252424" data-fill-palette-color="accent"></path></g><g fill="#252424" data-fill-palette-color="accent"><path d="M43.697 70.597c-0.018 0.002-0.032 0.007-0.048 0.009 0.019 0.001 0.037 0.001 0.057 0.004L43.697 70.597z" fill="#252424" data-fill-palette-color="accent"></path></g></g><g fill="#252424" data-fill-palette-color="accent"><g fill="#252424" data-fill-palette-color="accent"><path d="M44.946 47.787c0.211-0.075 0.406-0.112 0.591-0.123-0.074-6.17-2.747-10.923-5.274-14.042-0.16 0.211-0.374 0.392-0.655 0.544-0.482 0.262-0.881 0.676-1.346 0.978-0.671 0.436-0.97 0.965-0.732 1.79 0.166 0.577 0.24 1.188 0.281 1.788 0.015 0.211-0.189 0.438-0.294 0.657-0.169-0.144-0.392-0.257-0.493-0.438-0.145-0.258-0.258-0.562-0.282-0.854-0.063-0.775-0.244-1.301-1.202-1.409-0.676-0.077-1.391-0.661-2.016-0.203-0.136 0.101-0.265 0.191-0.39 0.268-0.659 0.927-1.53 1.769-2.688 2.382l1.037 1.396-2.849-0.192c-0.024 0.221-0.046 0.441-0.068 0.662-0.089 0.891 0.739 2.294 1.479 2.441 0.47 0.094 1.037 0.096 1.461-0.089 0.348-0.151 0.552-0.638 0.815-0.979 0.061-0.08 0.091-0.231 0.161-0.249 0.465-0.114 0.937-0.201 1.407-0.298-0.063 0.305-0.119 0.611-0.191 0.913-0.07 0.292-0.143 0.586-0.24 0.87-0.383 1.129-0.386 1.125 0.883 1.235 0.25 0.022 0.51 0.034 0.744 0.113 0.482 0.162 0.788 0.447 0.576 1.025-0.086 0.235-0.147 0.487-0.17 0.734-0.11 1.202 0.456 1.75 1.791 1.754 0.316-0.01 0.633-0.02 0.949-0.028 0.407 0.23 0.763 0.638 1.188-0.065 0.544-0.895 1.267-1.56 2.438-0.945 0.697-0.401 1.291-0.176 1.931 0.21C44.101 47.821 44.615 47.908 44.946 47.787z" fill="#252424" data-fill-palette-color="accent"></path></g><g fill="#252424" data-fill-palette-color="accent"><path d="M70.885 31.56c-0.04-0.202-0.436-0.513-0.591-0.474-0.293 0.074-0.677 0.317-0.766 0.577-0.207 0.612-1.774 1.397-1.826 1.096-0.102-0.593-0.058-0.86-0.04-1.463 0.003-0.125 0.266-0.335 0.423-0.349 0.866-0.074 1.17-0.32 0.767-1.008-0.668-1.141 0.009-1.999 0.508-2.736 0.279-0.413 0.306-0.575 0.142-0.933-0.689-1.502-1.373-3.008-2.062-4.512-0.062-0.137-0.141-0.268-0.216-0.4-1.592-2.786-3.54-5.29-5.92-7.445-0.228-0.205-0.562-0.291-0.847-0.433-0.112 0.374-0.336 0.759-0.302 1.118 0.028 0.292 0.373 0.55 0.569 0.828 0.054 0.076 0.128 0.183 0.107 0.25-0.019 0.063-0.188 0.15-0.228 0.126-0.823-0.5-1.408 0.431-2.087 0.366-1.019-0.097-1.347 0.444-1.589 1.23-0.119 0.385-0.243 0.772-0.421 1.13-0.05 0.102-0.342 0.193-0.447 0.14-1.038-0.521-1.803-1.228-1.807-2.525-0.001-0.412-0.219-0.83-0.37-1.233-0.121-0.324-0.243-0.588 0.299-0.573 0.07 0.002 0.178-0.266 0.218-0.421 0.428-1.654-1.274-2.442-1.593-3.831-0.12-0.521-0.86-0.91-1.346-1.328-0.141-0.121-0.377-0.128-0.568-0.193-0.285-0.098-0.568-0.202-0.815-0.29 0.336-0.271 0.659-0.532 0.983-0.792-0.388-0.205-0.763-0.442-1.168-0.603-0.368-0.146-0.823-0.123-1.146-0.325-0.634-0.396-1.821-0.603-1.957-0.688-0.165-0.105-0.372-0.195-0.562-0.197-0.244-0.002-1.476-0.307-1.5-0.315-0.281-0.104-0.577-0.188-0.876-0.231-0.998-0.146-1.995-0.333-2.998-0.396-4.959-0.305-9.782 0.368-14.425 2.158-1.222 0.472-2.392 1.078-3.577 1.641-0.1 0.048-0.133 0.235-0.197 0.358 0.093 0.035 0.184 0.091 0.28 0.101 0.749 0.075 1.528 0.039 2.237 0.247 0.447 0.131 0.813 0.195 1.284 0.147 1.2-0.122 2.388-0.598 3.617-0.239 0.614 0.18 1.344 0.245 1.8 0.626 0.724 0.607 0.649 0.685 1.103 0.774 0.169 0.033 0.454 0.151 0.46 0.244 0.03 0.483 0.136 0.481 0.513 0.216 0.379-0.266 0.874-0.625 1.264-0.569 0.831 0.119 1.726 0.333 2.41 0.785 0.696 0.461 1.001 0.008 1.431-0.248 0.511-0.305 0.935-0.651 0.4-1.322-0.06-0.076 0.209-0.476 0.394-0.657 0.122-0.12 0.365-0.118 0.555-0.17 0.048 0.224 2.202 2.091 2.588 1.864 0.16-0.096 0.46-0.011 0.673 0.062 0.094 0.032 0.128 0.238 0.19 0.365-0.487 0.153-2.604 1.273-3.101 1.833-0.285 0.321-0.683 0.639-1.085 0.742-1.436 0.364-2.49 1.286-3.504 2.265-0.378 0.365-0.179 2.516 0.192 2.522 1.328 0.02 1.899 1.302 2.991 1.645 0.655 0.205 0.732 0.592 0.594 1.155-0.048 0.19-0.147 0.459-0.062 0.576 0.278 0.383 0.631 0.712 0.955 1.062 0.233-0.354 0.647-0.699 0.663-1.062 0.033-0.793 0.097-1.395 1.008-1.694 0.299-0.098 0.691-0.808 0.592-1.061-0.411-1.039 0.292-1.82 0.464-2.709 0.179-0.923 0.243-0.911 1.209-0.688 0.818 0.19 1.869 1.183 1.646 1.743-0.295 0.736 0.219 1.058 0.558 1.344 0.154 0.131 0.753-0.25 1.143-0.418 0.082-0.036 0.122-0.158 0.192-0.229 0.271-0.278 0.374-0.13 0.512 0.156 0.512 1.059 0.369 2.389 1.301 3.276 0.479-0.039 0.966-0.061 1.457-0.061 2.556 0 4.992 0.559 7.249 1.661l0.925-3.267 7.321 10.958-10.095-1.151 0.749-2.65c-2.921-1.383-6.06-2.084-9.33-2.084-0.607 0-1.2 0.025-1.777 0.069 0.069 0.053 0.162 0.076 0.272 0.045 0.024 0.343 0.013 0.693 0.086 1.025 0.053 0.236 0.187 0.475 0.341 0.666 0.447 0.554 0.242 0.918-0.312 1.187-0.148 0.072-0.33 0.079-0.495 0.115 0.031-0.14 0.049-0.286 0.099-0.419 0.048-0.129 0.13-0.244 0.196-0.366-0.143-0.027-0.309-0.113-0.427-0.07-0.467 0.169-0.914 0.387-1.376 0.57-0.54 0.215-1.033 0.503-1.104 1.13-0.044 0.39-1.923 2.045-2.811 2.966 3.861 3.009 8.551 8.17 8.444 15.437l3.349-0.553-1.981 3.287c0.739 0.45 1.018 1.367 0.633 2.36-0.179 0.462 0.049 0.536 0.384 0.541 0.299 0.004 0.598-0.058 0.897-0.087 0.246-0.023 0.601-0.155 0.724-0.041 1.075 0.997 2.701 0.063 3.777 1.15 0.629 0.637 0.919 1.003 0.327 1.617-1.161 1.207-1.657 2.707-2.265 4.186-0.262 0.637-0.741 1.098-1.472 1.409-1.031 0.438-1.832 1.15-2.555 2.165-0.787 1.104-1.541 2.694-3.376 2.671-0.099-0.001-0.306 0.282-0.283 0.321 0.357 0.576-0.064 0.732-0.464 0.844-1.797 0.496-2.938 1.652-3.52 3.397 0.646-0.058 1.31-0.038 1.934-0.188 10.304-2.476 17.83-8.468 22.662-17.893 0.796-1.553 1.176-3.215 1.628-4.867 0.104-0.377-0.033-0.477-0.297-0.688-0.343-0.275-0.504-0.123-0.762 0.069-0.36 0.27-0.762 0.482-1.138 0.73-0.413 0.271-0.738 0.248-0.991-0.222-0.31-0.57-0.591-1.165-0.974-1.683-0.475-0.642-0.496-1.264-0.264-1.995 0.181-0.57 0.394-1.218 0.289-1.775-0.284-1.511 0.479-2.607 1.202-3.762 0.287-0.454 0.633-0.958 0.673-1.463 0.111-1.383 1.089-1.854 2.146-2.259 0.416-0.159 0.821-0.055 0.869 0.513 0.06 0.707 0.253 1.345 0.926 1.947C71.742 35.075 71.238 33.324 70.885 31.56zM49.673 14.441c-0.057 0.034-0.298-0.083-0.314-0.162-0.156-0.735-0.726-0.739-1.285-0.751-0.6-0.015-1.098-0.012-0.959-0.914 0.05-0.316-0.437-0.712-0.675-1.074-0.537-0.815-1.135-1.479-2.272-1.259-0.323 0.062-0.688-0.131-1.038-0.154-0.643-0.041-0.621-0.611-0.715-0.984C42.362 8.94 42.659 8.567 42.891 8.4c0.214-0.152 0.551-0.129 0.833-0.183-0.135 0.202-0.313 0.389-0.389 0.611-0.056 0.159 0.025 0.365 0.046 0.55 0.143-0.087 0.301-0.158 0.426-0.267 0.187-0.164 0.326-0.396 0.534-0.52 0.154-0.092 0.551-0.094 0.554-0.078 0.227 1.113 1.494 0.802 2.05 1.526 0.559 0.726 1.426 1.17 1.582 2.247 0.056 0.389 0.689 0.683 1.03 1.046 0.188 0.199 0.313 0.454 0.45 0.656C49.854 14.21 49.79 14.37 49.673 14.441z" fill="#252424" data-fill-palette-color="accent"></path></g><g fill="#252424" data-fill-palette-color="accent"><polygon points="43.706,70.609 43.71,70.596 43.697,70.597    " fill="#252424" data-fill-palette-color="accent"></polygon></g></g></g><path d="M21.209 31.595c-3.637 0-6.887-1.019-9.662-3.027l-0.321-0.233-1.145 2.534-4.421-9.39 7.728 2.076-1.044 2.309 0.223 0.153c3.826 2.637 8.221 3.974 13.062 3.974 0 0 0 0 0.001 0 2.068 0 3.894-0.247 5.332-0.539C28.57 30.46 25.03 31.595 21.209 31.595z" fill="#252424" data-fill-palette-color="accent"></path><path d="M57.879 29.147l0.689-2.438-0.243-0.119c-3.079-1.504-6.396-2.268-9.857-2.268-3.586 0-6.71 0.83-8.878 1.623 2.724-1.665 7.165-3.794 12.058-3.794 2.585 0 5.042 0.594 7.306 1.765l0.353 0.183 0.758-2.675 5.765 8.629L57.879 29.147z" fill="#252424" data-fill-palette-color="accent"></path><path d="M43.756 48.949l2.501-0.413 0.003-0.27c0.128-8.344-4.388-14.241-7.396-17.234 3.938 2.604 10.41 8.196 10.084 16.666l-0.016 0.396 2.743-0.453-5.358 8.889L43.756 48.949z" fill="#252424" data-fill-palette-color="accent"></path><path d="M26.173 39.51l2.163-2.233 0.662 0.89 0.243-0.12c2.622-1.3 4.11-3.346 4.944-5.088-0.504 2.05-1.661 4.524-4.295 5.756l-0.36 0.167 0.667 0.898L26.173 39.51z" fill="#252424" data-fill-palette-color="accent"></path><path d="M32.481 24.355c-1.595-1.383-3.271-3.539-3.167-6.445l0.015-0.397-1.104 0.185 2.074-3.459 1.002 2.943-1.094 0.184-0.003 0.271C30.167 20.562 31.31 22.818 32.481 24.355z" fill="#252424" data-fill-palette-color="accent"></path></svg></g></svg></g><g id="text-0"><path d="M38.067 79.684l2.006-4.552 2.931 1.292-5.425 12.308-2.93-1.291 1.852-4.204-11.841-5.218c-1.13-0.498-2.536-1.285-4.22-2.363v0l15.183 18.186-0.807 1.831-23.5 1.062c1.95 0.604 3.42 1.124 4.409 1.56v0l11.841 5.218 1.848-4.194 2.931 1.291-5.343 12.126-2.931-1.292 1.986-4.506-18.335-8.079-1.986 4.506-2.921-1.288 3.757-8.526 23.635-1.167-15.164-18.056 3.758-8.526 2.921 1.287-1.989 4.515z" fill="#270206" data-fill-palette-color="primary"></path><path d="M31.5 55.476c-0.511 0.642-1.115 1.048-1.813 1.218-0.692 0.174-1.3 0.053-1.822-0.362v0c-0.543-0.432-0.816-1.011-0.817-1.738 0.003-0.722 0.26-1.404 0.771-2.046v0c0.544-0.684 1.168-1.109 1.87-1.274 0.704-0.156 1.327-0.018 1.871 0.413v0c0.522 0.415 0.778 0.977 0.769 1.686-0.008 0.718-0.285 1.419-0.829 2.103zM47.984 65.636l2.567-3.227 2.381 1.895-7.458 9.374-2.381-1.894 2.542-3.195-9.437-7.508-2.542 3.195-2.381-1.894 4.891-6.148z" fill="#270206" data-fill-palette-color="primary"></path><path d="M70.873 44.748l2.765-2.341 1.966 2.321-8.171 6.921-1.967-2.321 2.559-2.167-4.858-5.735c-0.914-1.079-1.902-1.698-2.963-1.858-1.061-0.159-2.094 0.186-3.097 1.036v0c-1.706 1.445-2.596 4.048-2.671 7.81v0l5.058 5.972 2.559-2.167 1.966 2.322-8.553 7.244-1.967-2.322 3.116-2.639-7.794-9.202-3.116 2.639-1.966-2.322 5.995-5.077 2.762 3.261c0.069-2.148 0.355-3.947 0.859-5.397 0.499-1.455 1.327-2.671 2.482-3.65v0c1.588-1.345 3.249-1.873 4.981-1.583 1.723 0.289 3.432 1.435 5.126 3.436v0z" fill="#270206" data-fill-palette-color="primary"></path><path d="M96.742 30.548l1.97 2.111c-0.229 0.347-0.541 0.698-0.937 1.055-0.396 0.356-0.847 0.662-1.353 0.917v0c-0.846 0.426-1.692 0.572-2.537 0.436-0.845-0.135-1.596-0.567-2.255-1.296v0c-0.501 1.29-1.135 2.442-1.901 3.456-0.764 1.02-1.766 1.841-3.006 2.465v0c-1.4 0.705-2.881 1.006-4.442 0.903-1.564-0.109-3.023-0.618-4.377-1.528-1.351-0.918-2.432-2.182-3.242-3.791v0c-0.843-1.675-1.23-3.37-1.159-5.085 0.07-1.716 0.561-3.27 1.473-4.664 0.906-1.39 2.14-2.478 3.701-3.264v0c1.996-1.005 4.201-1.196 6.614-0.573v0l-3.24-6.436-3.647 1.836-1.368-2.717 6.954-3.501 9.788 19.442c0.555 1.103 1.211 1.463 1.968 1.082v0c0.501-0.252 0.833-0.535 0.996-0.848zM78.162 33.481c0.831 1.651 1.962 2.747 3.393 3.289 1.44 0.545 2.907 0.441 4.403-0.312v0c1.716-0.864 3.123-2.551 4.22-5.06v0l-3.586-7.124c-2.251-0.48-4.157-0.327-5.719 0.458v0c-1.079 0.543-1.926 1.287-2.541 2.232-0.621 0.948-0.948 1.99-0.98 3.127-0.027 1.134 0.243 2.264 0.81 3.39z" fill="#270206" data-fill-palette-color="primary"></path><path d="M107.415 4.8c-1.142 0.3-1.968 0.9-2.476 1.799-0.507 0.906-0.595 1.991-0.263 3.256v0l0.687 2.614 5.595-1.47 0.772 2.943-5.595 1.469 3.063 11.665 5.14-1.35 0.773 2.942-12.7 3.335-0.773-2.942 3.95-1.037-3.063-11.665-3.95 1.038-0.772-2.943 3.949-1.037-0.656-2.498c-0.607-2.31-0.438-4.269 0.506-5.875 0.946-1.6 2.486-2.681 4.622-3.242v0c1.097-0.288 2.135-0.409 3.113-0.362 0.986 0.051 2.147 0.191 3.484 0.42v0l-0.601 3.189c-0.885-0.244-1.715-0.398-2.491-0.463-0.774-0.059-1.545 0.013-2.314 0.214z" fill="#270206" data-fill-palette-color="primary"></path><path d="M142.978 22.91l1.028 2.668c-0.832 0.546-1.773 0.855-2.825 0.928v0c-1.205 0.084-2.205-0.205-2.999-0.865-0.795-0.667-1.289-1.663-1.482-2.987v0c-1.181 1.493-2.362 2.642-3.543 3.446-1.181 0.804-2.451 1.253-3.809 1.347v0c-1.997 0.139-3.587-0.42-4.771-1.675-1.184-1.255-1.866-3.178-2.045-5.767v0l-0.533-7.688-3.614 0.251-0.211-3.035 7.388-0.513 0.736 10.603c0.1 1.438 0.476 2.525 1.129 3.263 0.66 0.743 1.656 1.069 2.987 0.976v0c1.97-0.137 3.984-1.527 6.041-4.171v0l-0.578-8.337-3.305 0.23-0.211-3.035 7.079-0.491 0.933 13.448c0.087 1.258 0.564 1.857 1.429 1.797v0c0.513-0.036 0.905-0.166 1.176-0.393z" fill="#270206" data-fill-palette-color="primary"></path><path d="M155.781 24.134l4.175 0.485-0.351 3.022-11.939-1.386 0.351-3.023 4.016 0.467 2.347-20.21-4.016-0.467 0.351-3.022 7.764 0.902z" fill="#270206" data-fill-palette-color="primary"></path><path d="M196.426 37.751l4.651 1.765-1.137 2.994-12.575-4.772 1.136-2.995 4.295 1.63 4.591-12.098c0.438-1.154 1.151-2.6 2.138-4.338v0l-17.365 16.114-1.871-0.71-2.291-23.412c-0.501 1.979-0.944 3.474-1.327 4.484v0l-4.591 12.099 4.285 1.626-1.136 2.994-12.389-4.701 1.137-2.994 4.603 1.747 7.109-18.733-4.604-1.747 1.133-2.985 8.711 3.306 2.403 23.541 17.237-16.088 8.712 3.306-1.133 2.985-4.613-1.751z" fill="#270206" data-fill-palette-color="primary"></path><path d="M219.106 50.628l-0.178 2.951c-3.267 0.252-6.166-0.565-8.695-2.451v0c-1.38-1.029-2.472-2.293-3.278-3.792-0.805-1.499-1.175-3.09-1.11-4.773 0.066-1.674 0.667-3.272 1.804-4.797v0c1.216-1.631 2.668-2.763 4.354-3.395 1.686-0.632 3.399-0.803 5.139-0.513 1.74 0.29 3.299 0.95 4.679 1.979v0c1.214 0.905 2.154 1.91 2.821 3.014 0.666 1.104 1.011 2.21 1.034 3.318 0.023 1.107-0.302 2.113-0.977 3.017v0c-1.013 1.359-2.381 1.982-4.104 1.871-1.724-0.121-3.4-0.787-5.025-1.999v0c-1.048-0.782-1.947-1.619-2.697-2.511-0.74-0.893-1.42-1.891-2.038-2.992v0l-0.21 0.28c-0.722 0.968-1.13 1.995-1.224 3.082-0.085 1.085 0.117 2.114 0.607 3.087 0.491 0.982 1.199 1.818 2.125 2.508v0c2.102 1.567 4.427 2.273 6.973 2.116zM220.243 38.405c-1.113-0.83-2.385-1.283-3.817-1.36-1.436-0.072-2.767 0.284-3.992 1.068v0c1.152 1.725 2.51 3.17 4.071 4.334v0c1.032 0.77 2.026 1.211 2.982 1.325 0.952 0.119 1.681-0.162 2.188-0.841v0c0.491-0.658 0.601-1.408 0.33-2.251-0.271-0.843-0.858-1.601-1.762-2.275z" fill="#270206" data-fill-palette-color="primary"></path><path d="M243.679 84.943l2.158 2.86-2.429 1.833-6.401-8.485 2.428-1.832 1.971 2.612 6.184-4.665c1.065-0.804 1.728-1.676 1.988-2.616 0.259-0.931 0.033-1.868-0.679-2.811v0c-0.635-0.842-1.563-1.495-2.784-1.961-1.217-0.461-2.654-0.726-4.311-0.796v0l-0.152 0.114-6.279 4.738 1.995 2.645-2.429 1.832-6.269-8.308 2.429-1.833 2.001 2.652 6.184-4.665c1.065-0.804 1.72-1.686 1.963-2.648 0.243-0.952 0.009-1.9-0.702-2.842v0c-0.635-0.842-1.568-1.491-2.8-1.95-1.228-0.453-2.689-0.717-4.384-0.792v0l-6.367 4.805 2.019 2.676-2.429 1.832-6.751-8.947 2.429-1.833 2.459 3.26 9.627-7.264-2.459-3.259 2.428-1.833 4.732 6.271-3.163 2.388c1.808 0.048 3.422 0.376 4.842 0.984 1.422 0.599 2.564 1.471 3.429 2.617v0c0.884 1.172 1.299 2.397 1.243 3.675-0.05 1.274-0.584 2.538-1.602 3.792v0c1.904 0.009 3.603 0.311 5.097 0.906 1.499 0.591 2.698 1.483 3.598 2.675v0c1.129 1.497 1.483 3.068 1.063 4.715-0.412 1.648-1.611 3.221-3.598 4.72v0z" fill="#270206" data-fill-palette-color="primary"></path><path d="M247.43 102.006c-0.641-1.655-0.87-3.344-0.687-5.068 0.19-1.726 0.802-3.277 1.836-4.651 1.038-1.383 2.431-2.413 4.179-3.09v0c1.773-0.687 3.5-0.866 5.18-0.538 1.684 0.32 3.175 1.056 4.472 2.206 1.297 1.15 2.267 2.553 2.908 4.208v0c0.632 1.63 0.854 3.301 0.666 5.012-0.188 1.712-0.8 3.262-1.836 4.651-1.027 1.393-2.415 2.428-4.163 3.105v0c-1.748 0.678-3.469 0.862-5.164 0.552-1.688-0.312-3.181-1.035-4.48-2.17-1.292-1.138-2.263-2.543-2.911-4.217zM250.267 100.907c0.417 1.076 1.045 1.949 1.884 2.618 0.837 0.663 1.811 1.062 2.922 1.197 1.111 0.135 2.28-0.036 3.505-0.511v0c1.219-0.473 2.194-1.133 2.924-1.981 0.736-0.851 1.187-1.802 1.352-2.853 0.169-1.06 0.045-2.128-0.372-3.205v0c-0.641-1.655-1.725-2.798-3.251-3.43-1.526-0.632-3.21-0.591-5.051 0.122v0c-1.848 0.716-3.122 1.822-3.824 3.317-0.701 1.495-0.731 3.071-0.089 4.726z" fill="#270206" data-fill-palette-color="primary"></path><path d="M27.286 210.925l2.006 4.552-2.93 1.291-5.424-12.308 2.93-1.292 1.853 4.204 11.841-5.218c1.13-0.498 2.66-1.004 4.591-1.52v0l-23.666-1.066-0.807-1.831 15.073-18.061c-1.762 1.032-3.137 1.765-4.126 2.201v0l-11.842 5.219 1.849 4.194-2.931 1.292-5.343-12.126 2.93-1.291 1.986 4.506 18.335-8.08-1.986-4.506 2.921-1.287 3.758 8.526-15.087 18.23 23.558 0.993 3.757 8.526-2.921 1.288-1.99-4.515z" fill="#270206" data-fill-palette-color="primary"></path><path d="M52.12 213.978c-0.511-0.642-0.771-1.322-0.779-2.04-0.014-0.714 0.241-1.278 0.762-1.694v0c0.543-0.432 1.169-0.567 1.877-0.406 0.703 0.166 1.31 0.569 1.821 1.211v0c0.544 0.684 0.818 1.387 0.821 2.11-0.006 0.721-0.281 1.298-0.824 1.729v0c-0.522 0.415-1.127 0.539-1.815 0.37-0.698-0.17-1.319-0.596-1.863-1.28zM38.514 227.756l2.567 3.227-2.381 1.894-7.458-9.375 2.381-1.894 2.542 3.195 9.438-7.507-2.543-3.196 2.381-1.894 4.891 6.148z" fill="#270206" data-fill-palette-color="primary"></path><path d="M63.052 250.344l2.764 2.342-1.966 2.321-8.171-6.921 1.966-2.321 2.558 2.167 4.858-5.736c0.914-1.079 1.362-2.156 1.344-3.228-0.018-1.073-0.528-2.034-1.531-2.884v0c-1.706-1.445-4.42-1.894-8.143-1.349v0l-5.058 5.972 2.558 2.167-1.966 2.321-8.553-7.244 1.966-2.322 3.116 2.639 7.794-9.202-3.116-2.639 1.967-2.322 5.994 5.078-2.761 3.261c2.13-0.285 3.952-0.299 5.464-0.041 1.517 0.253 2.853 0.869 4.009 1.847v0c1.588 1.345 2.382 2.896 2.381 4.653-0.002 1.747-0.85 3.621-2.545 5.622v0z" fill="#270206" data-fill-palette-color="primary"></path><path d="M91.372 265.976l-0.522 2.841c-0.415 0.023-0.883-0.019-1.405-0.125-0.522-0.106-1.036-0.286-1.543-0.541v0c-0.846-0.426-1.467-1.018-1.861-1.777-0.395-0.759-0.495-1.62-0.302-2.584v0c-1.335 0.366-2.638 0.543-3.909 0.531-1.274-0.006-2.531-0.322-3.77-0.945v0c-1.4-0.705-2.524-1.715-3.371-3.031-0.844-1.321-1.304-2.796-1.38-4.426-0.067-1.632 0.304-3.253 1.114-4.862v0c0.843-1.675 1.974-2.995 3.395-3.96 1.42-0.966 2.961-1.497 4.623-1.595 1.656-0.1 3.265 0.243 4.826 1.03v0c1.996 1.005 3.463 2.662 4.4 4.971v0l3.24-6.436-3.647-1.837 1.368-2.717 6.955 3.501-9.788 19.443c-0.555 1.103-0.454 1.844 0.303 2.225v0c0.501 0.252 0.926 0.35 1.274 0.294zM77.95 252.799c-0.831 1.651-1.038 3.212-0.622 4.684 0.42 1.481 1.377 2.598 2.874 3.352v0c1.716 0.864 3.909 0.989 6.578 0.376v0l3.586-7.125c-0.955-2.094-2.213-3.534-3.774-4.32v0c-1.079-0.543-2.181-0.78-3.306-0.712-1.131 0.066-2.163 0.424-3.096 1.075-0.927 0.654-1.674 1.544-2.24 2.67z" fill="#270206" data-fill-palette-color="primary"></path><path d="M115.516 250.21c-1.142-0.3-2.156-0.183-3.041 0.35-0.887 0.54-1.496 1.442-1.828 2.707v0l-0.687 2.614 5.595 1.469-0.772 2.942-5.595-1.469-3.063 11.664 5.14 1.35-0.773 2.943-12.7-3.335 0.773-2.943 3.949 1.037 3.063-11.664-3.949-1.037 0.773-2.943 3.949 1.037 0.656-2.497c0.607-2.31 1.716-3.933 3.327-4.869 1.61-0.929 3.483-1.113 5.619-0.553v0c1.097 0.288 2.06 0.693 2.889 1.214 0.834 0.529 1.776 1.222 2.827 2.078v0l-2.09 2.483c-0.651-0.647-1.298-1.189-1.942-1.628-0.645-0.432-1.352-0.748-2.12-0.95z" fill="#270206" data-fill-palette-color="primary"></path><path d="M142.146 274.94l0.65 2.784c-0.899 0.426-1.874 0.602-2.926 0.53v0c-1.205-0.084-2.155-0.507-2.851-1.272-0.696-0.771-1.047-1.825-1.055-3.163v0c-1.375 1.316-2.704 2.29-3.985 2.924-1.281 0.633-2.601 0.903-3.958 0.809v0c-1.997-0.139-3.495-0.911-4.494-2.318-0.999-1.407-1.409-3.405-1.23-5.994v0l0.533-7.688-3.614-0.25 0.211-3.036 7.388 0.513-0.736 10.603c-0.1 1.438 0.123 2.567 0.668 3.387 0.551 0.827 1.492 1.287 2.824 1.379v0c1.97 0.137 4.156-0.962 6.559-3.297v0l0.578-8.336-3.305-0.229 0.211-3.036 7.079 0.491-0.933 13.449c-0.087 1.258 0.302 1.917 1.167 1.977v0c0.513 0.036 0.919-0.04 1.219-0.227z" fill="#270206" data-fill-palette-color="primary"></path><path d="M157.177 273.745l4.175-0.485 0.351 3.022-11.939 1.387-0.351-3.023 4.016-0.466-2.347-20.21-4.016 0.466-0.352-3.022 7.765-0.902z" fill="#270206" data-fill-palette-color="primary"></path><path d="M200.606 259.122l4.651-1.765 1.136 2.994-12.576 4.773-1.136-2.994 4.295-1.63-4.591-12.099c-0.438-1.154-0.864-2.709-1.278-4.664v0l-2.303 23.578-1.871 0.71-17.247-15.998c0.938 1.813 1.599 3.225 1.982 4.236v0l4.592 12.098 4.285-1.626 1.136 2.994-12.388 4.702-1.136-2.995 4.603-1.747-7.109-18.732-4.603 1.747-1.133-2.985 8.711-3.306 17.416 16.02 2.224-23.473 8.712-3.306 1.132 2.985-4.613 1.751z" fill="#270206" data-fill-palette-color="primary"></path><path d="M223.803 241.53l2.778 1.012c-0.691 3.203-2.301 5.748-4.832 7.635v0c-1.38 1.029-2.903 1.715-4.569 2.059-1.666 0.344-3.297 0.244-4.891-0.298-1.585-0.541-2.946-1.574-4.083-3.098v0c-1.216-1.631-1.887-3.345-2.011-5.142-0.124-1.796 0.201-3.487 0.975-5.071 0.774-1.584 1.852-2.891 3.232-3.92v0c1.214-0.905 2.446-1.52 3.694-1.844 1.249-0.323 2.407-0.338 3.475-0.044 1.068 0.294 1.939 0.893 2.613 1.797v0c1.013 1.359 1.22 2.848 0.622 4.467-0.608 1.618-1.725 3.034-3.351 4.246v0c-1.048 0.782-2.107 1.405-3.176 1.869-1.067 0.455-2.217 0.821-3.449 1.099v0l0.209 0.281c0.722 0.968 1.59 1.652 2.604 2.053 1.016 0.391 2.06 0.491 3.132 0.299 1.081-0.19 2.085-0.631 3.01-1.321v0c2.102-1.567 3.442-3.594 4.018-6.079zM212.413 236.952c-1.113 0.83-1.91 1.92-2.393 3.27-0.479 1.356-0.517 2.733-0.116 4.131v0c1.982-0.612 3.754-1.501 5.316-2.665v0c1.032-0.77 1.739-1.596 2.121-2.48 0.385-0.878 0.325-1.657-0.182-2.337v0c-0.491-0.658-1.178-0.977-2.063-0.958-0.885 0.019-1.779 0.365-2.683 1.039z" fill="#270206" data-fill-palette-color="primary"></path><path d="M253.339 208.204l2.158-2.86 2.429 1.832-6.402 8.485-2.429-1.833 1.972-2.612-6.184-4.666c-1.065-0.804-2.086-1.202-3.061-1.194-0.966 0.007-1.805 0.481-2.516 1.424v0c-0.635 0.842-1.009 1.913-1.122 3.216-0.109 1.297 0.03 2.752 0.418 4.364v0l0.151 0.115 6.28 4.738 1.995-2.645 2.429 1.833-6.269 8.309-2.429-1.833 2.001-2.652-6.183-4.666c-1.065-0.804-2.094-1.191-3.085-1.162-0.982 0.028-1.829 0.513-2.541 1.456v0c-0.635 0.842-1.004 1.917-1.106 3.227-0.099 1.305 0.049 2.782 0.442 4.433v0l6.367 4.805 2.019-2.677 2.429 1.833-6.751 8.947-2.429-1.832 2.459-3.26-9.626-7.263-2.46 3.259-2.428-1.832 4.731-6.272 3.164 2.387c-0.45-1.752-0.577-3.394-0.382-4.927 0.186-1.531 0.711-2.87 1.575-4.014v0c0.884-1.172 1.948-1.907 3.193-2.205 1.239-0.302 2.601-0.135 4.086 0.5v0c-0.514-1.834-0.69-3.55-0.528-5.149 0.157-1.603 0.685-3.002 1.585-4.195v0c1.129-1.497 2.543-2.268 4.243-2.316 1.698-0.056 3.54 0.665 5.526 2.164v0z" fill="#270206" data-fill-palette-color="primary"></path><path d="M265.395 190.815c-0.641 1.655-1.611 3.057-2.908 4.208-1.304 1.148-2.8 1.881-4.491 2.198-1.699 0.322-3.423 0.144-5.171-0.533v0c-1.773-0.687-3.169-1.719-4.189-3.095-1.028-1.372-1.634-2.92-1.817-4.643-0.183-1.724 0.046-3.413 0.687-5.068v0c0.632-1.63 1.594-3.014 2.886-4.152 1.292-1.138 2.789-1.871 4.491-2.198 1.698-0.337 3.42-0.166 5.169 0.511v0c1.748 0.678 3.144 1.702 4.187 3.072 1.037 1.368 1.653 2.909 1.846 4.623 0.188 1.712-0.042 3.404-0.69 5.077zM262.558 189.716c0.417-1.076 0.541-2.144 0.373-3.205-0.171-1.054-0.622-2.005-1.353-2.853-0.73-0.848-1.708-1.51-2.933-1.985v0c-1.219-0.473-2.385-0.642-3.496-0.507-1.117 0.132-2.091 0.531-2.922 1.197-0.839 0.669-1.467 1.542-1.884 2.618v0c-0.641 1.655-0.611 3.23 0.09 4.726 0.701 1.495 1.973 2.6 3.814 3.313v0c1.848 0.716 3.534 0.758 5.06 0.126 1.526-0.632 2.61-1.776 3.251-3.43z" fill="#270206" data-fill-palette-color="primary"></path><path d="M3.232 142.929c0-5.958 4.83-10.788 10.788-10.787 5.958 0 10.788 4.83 10.787 10.787 0 5.958-4.83 10.788-10.787 10.788-5.958 0-10.788-4.83-10.788-10.788z" fill="#270206" data-fill-palette-color="primary"></path><path d="M253.88 142.929c0-5.958 4.83-10.788 10.787-10.787 5.958 0 10.788 4.83 10.788 10.787 0 5.958-4.83 10.788-10.788 10.788-5.958 0-10.788-4.83-10.787-10.788z" fill="#270206" data-fill-palette-color="primary"></path></g><g id="text-1"></g></svg></g><g transform="matrix(1,0,0,1,0,295.71208315351686)"><svg viewBox="0 0 163.37208216 27.500218093988998" height="27.500218093988998" width="163.37208216"><g transform="matrix(1,0,0,1,0,0)"><svg width="163.37208216" viewBox="2.9 -37.1 290.77000000000004 48.95" height="27.500218093988998" data-palette-color="#2d2b2b"><path d="M26.45-8.6L26.6-8.35Q25.75-4.3 25.25 0.05L25.25 0.05 25 0.35Q14.5 0 9.85 0L9.85 0Q6.15 0 2.9 0.5L2.9 0.5 3.2-1.8Q5.45-2.1 6.28-2.98 7.1-3.85 7.1-6L7.1-6 7.15-27Q7.15-28.6 6.78-29.15 6.4-29.7 5.3-29.7L5.3-29.7 3.6-29.6 3.5-29.8 3.85-32Q8.95-31.85 10.8-31.85L10.8-31.85Q16.75-31.85 20.05-31.98 23.35-32.1 25.8-32.45L25.8-32.45 25.95-32.15Q25.05-28.2 24.8-23.85L24.8-23.85 22.4-23.65 22.5-25.8Q22.5-27.55 22.05-28.23 21.6-28.9 20.1-29.13 18.6-29.35 14.85-29.35L14.85-29.35Q13.1-29.35 12.45-29.25 11.8-29.15 11.6-28.78 11.4-28.4 11.35-27.4L11.35-27.4 10.95-17.7 16.1-17.65Q18.05-17.65 22.2-18.2L22.2-18.2 22.4-17.95 21.7-15Q16.15-15.15 14.7-15.15L14.7-15.15Q13.05-15.15 10.85-14.8L10.85-14.8 10.65-5.25Q10.65-3.8 10.9-3.23 11.15-2.65 11.93-2.45 12.7-2.25 14.6-2.25L14.6-2.25Q18.8-2.25 20.58-2.65 22.35-3.05 23.1-4.25 23.85-5.45 24.25-8.35L24.25-8.35 26.45-8.6ZM42.35 0.3L42.25 0.05 42.55-1.5Q43.8-1.55 44.32-1.78 44.85-2 44.85-2.55L44.85-2.55Q44.85-3.2 44-4.4L44-4.4 40.35-9.5Q37.9-6.5 36.6-4.83 35.3-3.15 35.3-2.55L35.3-2.55Q35.3-2.05 35.72-1.9 36.15-1.75 37.5-1.65L37.5-1.65 37.6-1.45 37.3 0.2Q36.8 0.15 35.55 0.08 34.3 0 33.15 0L33.15 0Q32.1 0 31.27 0.05 30.45 0.1 30.15 0.15L30.15 0.15 30-0.1 30.3-1.65Q31.4-2.25 32.15-2.95 32.9-3.65 33.77-4.67 34.65-5.7 34.95-6.05L34.95-6.05 39.25-11.05 35.45-16.45Q33.75-18.9 32.77-19.7 31.8-20.5 30.05-20.8L30.05-20.8 29.95-21 30.25-22.7Q30.8-22.7 32.32-22.65 33.85-22.6 35.3-22.6L35.3-22.6Q37.1-22.6 38.55-22.68 40-22.75 40.4-22.8L40.4-22.8 40.5-22.55 40.2-21Q39-21 38.47-20.78 37.95-20.55 37.95-20.05L37.95-20.05Q37.95-19.6 38.32-18.98 38.7-18.35 39.15-17.7L39.15-17.7 41.9-13.7 44.95-17.55Q45.85-18.6 46.17-19.13 46.5-19.65 46.5-20.1L46.5-20.1Q46.5-20.5 46.05-20.63 45.6-20.75 44.35-20.75L44.35-20.75 44.25-20.95 44.5-22.6 48.15-22.6Q49.25-22.6 50.3-22.65 51.35-22.7 51.7-22.75L51.7-22.75 51.85-22.5 51.55-20.9Q50.2-20.45 47.35-17.15L47.35-17.15 43.05-12.1 47.65-5.55Q48.95-3.65 50.1-2.8 51.25-1.95 52.7-1.8L52.7-1.8 52.8-1.6 52.5 0.1Q52 0.1 50.67 0.05 49.35 0 47.95 0L47.95 0Q46.7 0 44.82 0.13 42.95 0.25 42.35 0.3L42.35 0.3ZM55.55 11.85L55.8 9.9Q56.9 9.75 57.42 9.45 57.95 9.15 58.15 8.45 58.34 7.75 58.34 6.3L58.34 6.3Q58.34 4.2 58.4 2.7L58.4 2.7 58.45-2 58.45-16.9Q58.45-18.6 57.9-19.28 57.34-19.95 56-19.95L56-19.95 55.45-19.95 55.3-20.15 55.45-21.8Q57.59-22.15 59.72-22.63 61.84-23.1 62.45-23.25L62.45-23.25 62.75-22.85Q62.7-22.6 62.52-21.78 62.34-20.95 62.25-20.15L62.25-20.15 62.45-19.8Q67.15-23.05 68.25-23.05L68.25-23.05Q71.09-23.05 73.3-21.73 75.5-20.4 76.7-18 77.9-15.6 77.9-12.5L77.9-12.5Q77.9-8.95 76.2-5.95 74.5-2.95 71.65-1.18 68.8 0.6 65.45 0.6L65.45 0.6Q64.34 0.6 63.27 0.53 62.2 0.45 61.8 0.4L61.8 0.4 61.84 5.55Q61.84 7.85 62.32 8.68 62.8 9.5 64.2 9.5L64.2 9.5 65.9 9.45 66 9.6 65.59 11.5 60.84 11.5Q59.05 11.5 57.52 11.65 56 11.8 55.55 11.85L55.55 11.85ZM66.84-2.15Q70.2-2.15 72.12-4.42 74.05-6.7 74.05-10.65L74.05-10.65Q74.05-13.15 73.17-15.2 72.3-17.25 70.77-18.45 69.25-19.65 67.45-19.65L67.45-19.65Q66.45-19.65 65-18.98 63.55-18.3 62.25-17.2L62.25-17.2Q61.84-10.65 61.84-3.1L61.84-3.1Q62.84-2.7 64.22-2.43 65.59-2.15 66.84-2.15L66.84-2.15ZM81.04 0.6L81.24-1.45Q82.64-1.85 83.22-2.45 83.79-3.05 83.92-3.9 84.04-4.75 84.04-6.75L84.04-6.75 84.04-31.3Q84.04-32.85 83.69-33.4 83.34-33.95 82.24-33.95L82.24-33.95Q81.99-33.95 81.09-33.85L81.09-33.85 80.94-33.95 81.14-35.65Q85.34-36.25 88.54-37.1L88.54-37.1 88.84-36.45Q88.29-35.6 87.87-25.75 87.44-15.9 87.44-4.9L87.44-4.9Q87.44-3.4 87.84-2.75 88.24-2.1 89.19-2.1L89.19-2.1 90.94-2.2 91.04-2 90.64 0.15Q87.34 0 86.19 0L86.19 0Q84.49 0 81.04 0.6L81.04 0.6ZM103.39 0.6Q100.54 0.6 98.34-0.8 96.14-2.2 94.92-4.73 93.69-7.25 93.69-10.5L93.69-10.5Q93.69-14 95.22-16.93 96.74-19.85 99.39-21.53 102.04-23.2 105.29-23.2L105.29-23.2Q108.09-23.2 110.32-21.8 112.54-20.4 113.77-17.88 114.99-15.35 114.99-12.1L114.99-12.1Q114.99-8.6 113.47-5.68 111.94-2.75 109.29-1.07 106.64 0.6 103.39 0.6L103.39 0.6ZM104.79-1.85Q107.59-1.85 109.24-4.13 110.89-6.4 110.89-10.3L110.89-10.3Q110.89-13.25 109.99-15.58 109.09-17.9 107.47-19.2 105.84-20.5 103.79-20.5L103.79-20.5Q100.99-20.5 99.34-18.2 97.69-15.9 97.69-11.95L97.69-11.95Q97.69-9 98.59-6.7 99.49-4.4 101.09-3.13 102.69-1.85 104.79-1.85L104.79-1.85ZM119.74-1.8Q121.24-1.95 121.74-2.78 122.24-3.6 122.24-5.95L122.24-5.95 122.24-16.95Q122.24-18.6 121.79-19.3 121.34-20 120.34-20L120.34-20Q119.94-20 119.66-19.95 119.39-19.9 119.29-19.85L119.29-19.85 119.04-20.2 119.19-21.75Q121.09-22.1 123.21-22.6 125.34-23.1 125.94-23.25L125.94-23.25 126.29-22.95Q126.19-22.5 125.99-20.88 125.79-19.25 125.84-17.8L125.84-17.8 126.04-17.65Q127.54-20 129.56-21.5 131.59-23 133.09-23L133.09-23Q133.79-23 134.16-22.93 134.54-22.85 134.64-22.8L134.64-22.8 134.79-22.6Q134.69-21.9 134.36-19.63 134.04-17.35 133.99-15.45L133.99-15.45 132.04-15.3Q132.04-17.35 131.76-18.03 131.49-18.7 130.69-18.7L130.69-18.7Q129.59-18.7 128.34-17.78 127.09-16.85 126.04-15.3L126.04-15.3Q125.99-13.85 125.84-10.5 125.69-7.15 125.64-5.1L125.64-5.1Q125.64-3.4 126.14-2.8 126.64-2.2 128.04-2.2L128.04-2.2Q128.69-2.2 129.34-2.25 129.99-2.3 130.24-2.3L130.24-2.3 130.29-2.1 129.84 0.1Q129.34 0.1 127.84 0.05 126.34 0 124.74 0L124.74 0Q122.89 0 121.39 0.08 119.89 0.15 119.49 0.2L119.49 0.2 119.74-1.8ZM147.74 0.6Q144.64 0.6 142.24-0.78 139.84-2.15 138.54-4.67 137.24-7.2 137.24-10.45L137.24-10.45Q137.24-13.8 138.76-16.75 140.29-19.7 142.84-21.45 145.39-23.2 148.29-23.2L148.29-23.2Q151.94-23.2 153.84-21.35 155.74-19.5 155.74-15.95L155.74-15.95Q155.74-14.5 155.44-13.5L155.44-13.5 154.79-12.9 140.99-12.9Q140.94-8.05 142.91-5.43 144.89-2.8 148.44-2.8L148.44-2.8Q151.24-2.8 154.54-4.35L154.54-4.35 154.84-4.25 155.39-2.8Q153.59-1.5 151.41-0.45 149.24 0.6 147.74 0.6L147.74 0.6ZM141.19-14.75L150.24-15.2Q150.99-15.3 151.24-15.55 151.49-15.8 151.49-16.55L151.49-16.55Q151.49-18.55 150.41-19.6 149.34-20.65 147.34-20.65L147.34-20.65Q144.99-20.65 143.31-19.05 141.64-17.45 141.19-14.75L141.19-14.75ZM180.28 0.85Q179.58-1.65 177.06-10.15 174.53-18.65 171.93-26.8L171.93-26.8Q171.48-28.25 170.38-28.93 169.28-29.6 167.43-29.65L167.43-29.65 167.38-29.85 167.68-32Q168.33-32 170.03-31.93 171.73-31.85 173.33-31.85L173.33-31.85Q175.53-31.85 177.73-32.08 179.93-32.3 180.58-32.4L180.58-32.4 180.73-32.05 180.53-30.1Q177.98-29.9 177.11-29.5 176.23-29.1 176.23-28.05L176.23-28.05Q176.23-27.2 177.61-22.03 178.98-16.85 180.46-11.65 181.93-6.45 182.38-4.85L182.38-4.85 182.68-4.85 189.73-24.05 188.83-26.8Q188.33-28.25 187.28-28.9 186.23-29.55 184.33-29.65L184.33-29.65 184.23-29.85 184.58-32Q185.23-32 186.93-31.93 188.63-31.85 190.23-31.85L190.23-31.85Q192.13-31.85 194.46-32.08 196.78-32.3 197.48-32.4L197.48-32.4 197.63-32.05 197.43-30.1Q194.83-29.9 193.96-29.5 193.08-29.1 193.08-28L193.08-28Q193.08-26.95 195.68-17.6 198.28-8.25 199.28-4.85L199.28-4.85 199.58-4.85Q199.68-5.15 199.81-5.48 199.93-5.8 200.08-6.25L200.08-6.25Q207.68-26.65 207.68-28.1L207.68-28.1Q207.68-29.05 206.88-29.45 206.08-29.85 204.28-29.85L204.28-29.85 201.78-29.85 201.68-30.05 202.03-32.2Q202.68-32.15 204.83-32 206.98-31.85 208.98-31.85L208.98-31.85Q210.78-31.85 212.28-31.9 213.78-31.95 214.28-32L214.28-32 213.93-29.65Q212.43-29.55 211.83-29.13 211.23-28.7 210.73-27.25L210.73-27.25 200.23-0.25 197.13 0.85Q196.63-0.9 194.81-7.2 192.98-13.5 190.88-20.35L190.88-20.35 190.58-20.35 183.48-0.25 180.28 0.85ZM222.08 0.6Q219.23 0.6 217.03-0.8 214.83-2.2 213.6-4.73 212.38-7.25 212.38-10.5L212.38-10.5Q212.38-14 213.9-16.93 215.43-19.85 218.08-21.53 220.73-23.2 223.98-23.2L223.98-23.2Q226.78-23.2 229-21.8 231.23-20.4 232.45-17.88 233.68-15.35 233.68-12.1L233.68-12.1Q233.68-8.6 232.15-5.68 230.63-2.75 227.98-1.07 225.33 0.6 222.08 0.6L222.08 0.6ZM223.48-1.85Q226.28-1.85 227.93-4.13 229.58-6.4 229.58-10.3L229.58-10.3Q229.58-13.25 228.68-15.58 227.78-17.9 226.15-19.2 224.53-20.5 222.48-20.5L222.48-20.5Q219.68-20.5 218.03-18.2 216.38-15.9 216.38-11.95L216.38-11.95Q216.38-9 217.28-6.7 218.18-4.4 219.78-3.13 221.38-1.85 223.48-1.85L223.48-1.85ZM238.43-1.8Q239.93-1.95 240.43-2.78 240.93-3.6 240.93-5.95L240.93-5.95 240.93-16.95Q240.93-18.6 240.48-19.3 240.03-20 239.03-20L239.03-20Q238.63-20 238.35-19.95 238.08-19.9 237.98-19.85L237.98-19.85 237.73-20.2 237.88-21.75Q239.78-22.1 241.9-22.6 244.03-23.1 244.63-23.25L244.63-23.25 244.98-22.95Q244.88-22.5 244.68-20.88 244.48-19.25 244.53-17.8L244.53-17.8 244.73-17.65Q246.23-20 248.25-21.5 250.28-23 251.78-23L251.78-23Q252.48-23 252.85-22.93 253.23-22.85 253.33-22.8L253.33-22.8 253.48-22.6Q253.38-21.9 253.05-19.63 252.73-17.35 252.68-15.45L252.68-15.45 250.73-15.3Q250.73-17.35 250.45-18.03 250.18-18.7 249.38-18.7L249.38-18.7Q248.28-18.7 247.03-17.78 245.78-16.85 244.73-15.3L244.73-15.3Q244.68-13.85 244.53-10.5 244.38-7.15 244.33-5.1L244.33-5.1Q244.33-3.4 244.83-2.8 245.33-2.2 246.73-2.2L246.73-2.2Q247.38-2.2 248.03-2.25 248.68-2.3 248.93-2.3L248.93-2.3 248.98-2.1 248.53 0.1Q248.03 0.1 246.53 0.05 245.03 0 243.43 0L243.43 0Q241.58 0 240.08 0.08 238.58 0.15 238.18 0.2L238.18 0.2 238.43-1.8ZM255.97 0.6L256.17-1.45Q257.57-1.85 258.15-2.45 258.72-3.05 258.85-3.9 258.97-4.75 258.97-6.75L258.97-6.75 258.97-31.3Q258.97-32.85 258.62-33.4 258.27-33.95 257.17-33.95L257.17-33.95Q256.92-33.95 256.02-33.85L256.02-33.85 255.87-33.95 256.07-35.65Q260.27-36.25 263.47-37.1L263.47-37.1 263.77-36.45Q263.22-35.6 262.8-25.75 262.37-15.9 262.37-4.9L262.37-4.9Q262.37-3.4 262.77-2.75 263.17-2.1 264.12-2.1L264.12-2.1 265.87-2.2 265.97-2 265.57 0.15Q262.27 0 261.12 0L261.12 0Q259.42 0 255.97 0.6L255.97 0.6ZM289.32 0.6Q285.42 0.6 284.87-2.95L284.87-2.95 284.52-3.1Q279.32 0.45 278.27 0.45L278.27 0.45Q275.42 0.45 273.22-0.88 271.02-2.2 269.82-4.6 268.62-7 268.62-10.1L268.62-10.1Q268.62-13.65 270.3-16.65 271.97-19.65 274.85-21.43 277.72-23.2 281.07-23.2L281.07-23.2Q282.67-23.2 284.52-23L284.52-23 284.52-31.3Q284.52-34 282.67-34L282.67-34Q282.32-34 281.92-33.93 281.52-33.85 281.42-33.8L281.42-33.8 281.62-35.65Q283.77-35.95 286.07-36.45 288.37-36.95 289.02-37.1L289.02-37.1 289.32-36.45Q288.77-35.6 288.35-25.9 287.92-16.2 287.92-5.25L287.92-5.25Q287.92-4.15 288.47-3.55 289.02-2.95 289.97-2.95L289.97-2.95Q290.67-2.95 291.35-3.23 292.02-3.5 292.45-3.8 292.87-4.1 292.97-4.2L292.97-4.2 293.67-3.4Q293.52-3.15 292.92-2.33 292.32-1.5 291.35-0.6 290.37 0.3 289.32 0.6L289.32 0.6ZM279.07-2.8Q280.12-2.8 281.35-3.4 282.57-4 283.42-4.63 284.27-5.25 284.52-5.45L284.52-5.45 284.52-19.15Q284.37-19.25 283.77-19.53 283.17-19.8 282.1-20.05 281.02-20.3 279.67-20.3L279.67-20.3Q276.32-20.3 274.4-18.03 272.47-15.75 272.47-11.8L272.47-11.8Q272.47-9.3 273.35-7.25 274.22-5.2 275.75-4 277.27-2.8 279.07-2.8L279.07-2.8Z" opacity="1" transform="matrix(1,0,0,1,0,0)" fill="#2d2b2b" class="slogan-text-1" data-fill-palette-color="secondary" id="text-1"></path></svg></g></svg></g></svg></g></svg></g></svg></g><defs></defs></svg><rect width="241.06597335333092" height="280" fill="none" stroke="none" visibility="hidden"></rect></g></svg></g></svg>